<svg width="1440" height="246" viewBox="0 0 1440 246" fill="none" xmlns="http://www.w3.org/2000/svg">
<path fill-rule="evenodd" clip-rule="evenodd" d="M1446 94.4514L1397.8 125.935C1349.6 157.419 1253.2 220.387 1156.8 225.634C1060.4 230.881 964 178.408 867.6 152.172C771.2 125.935 674.8 125.935 578.4 136.43C482 146.924 385.6 167.914 289.2 157.419C192.8 146.924 96.3999 104.946 48.2 83.9568L0 62.9676V0H48.2C96.3999 0 192.8 0 289.2 0C385.6 0 482 0 578.4 0C674.8 0 771.2 0 867.6 0C964 0 1060.4 0 1156.8 0C1253.2 0 1349.6 0 1397.8 0H1446V94.4514Z" fill="#FFD600" fill-opacity="0.5"/>
<path fill-rule="evenodd" clip-rule="evenodd" d="M0 246L60 223.222C120 200.444 240 154.889 360 150.333C480 145.778 600 182.222 720 195.889C840 209.556 960 200.444 1080 182.222C1200 164 1320 136.667 1380 123L1440 109.333V0H1380C1320 0 1200 0 1080 0C960 0 840 0 720 0C600 0 480 0 360 0C240 0 120 0 60 0H0V246Z" fill="#FFD600" fill-opacity="0.62"/>
<path fill-rule="evenodd" clip-rule="evenodd" d="M0 139C60 101.375 240 107.5 360 102.125C480 96.75 600 161.25 720 161.25C840 161.25 960 96.75 1080 86C1200 75.25 1320 118.25 1380 139.75L1440 161.25V0H1380C1320 0 1200 0 1080 0C960 0 840 0 720 0C600 0 480 0 360 0C240 0 120 0 60 0H0V139Z" fill="#FFD600" fill-opacity="0.5"/>
<path fill-rule="evenodd" clip-rule="evenodd" d="M0 246L34.8 240.143C68.4 234.286 136.8 222.571 205.2 222.571C274.8 222.571 343.2 234.286 411.6 216.714C480 199.143 548.4 152.286 616.8 134.714C685.2 117.143 754.8 128.857 823.2 152.286C891.6 175.714 960 210.857 1028.4 193.286C1096.8 175.714 1165.2 105.429 1234.8 105.429C1303.2 105.429 1406.4 99.5714 1440 134.714V0H1405.2C1371.6 0 1303.2 0 1234.8 0C1165.2 0 1096.8 0 1028.4 0C960 0 891.6 0 823.2 0C754.8 0 685.2 0 616.8 0C548.4 0 480 0 411.6 0C343.2 0 274.8 0 205.2 0C136.8 0 68.4 0 34.8 0H0V246Z" fill="#FFD600" fill-opacity="0.5"/>
</svg>
