<svg width="380" height="519" viewBox="0 0 380 519" fill="none" xmlns="http://www.w3.org/2000/svg">
<g filter="url(#filter0_ii)">
<path d="M380 0H156.913L1.01874 519H224.105L380 0Z" fill="#FFD600"/>
</g>
<g filter="url(#filter1_d)">
<path d="M138.942 239.339H125.508L121.541 247.333H113L133.573 208.536H140.74L148.065 247.333H140.158L138.942 239.339ZM128.681 232.864H137.963L135.795 218.422L128.681 232.864Z" fill="black"/>
<path d="M151.952 247.333L158.642 208.536L170.648 208.563C175.108 208.581 178.458 209.495 180.697 211.307C182.936 213.119 183.949 215.669 183.738 218.955C183.491 222.881 181.243 225.75 176.995 227.562C178.528 228.095 179.718 229.098 180.565 230.573C181.411 232.029 181.772 233.752 181.649 235.742C181.402 239.401 179.974 242.253 177.365 244.296C174.773 246.321 171.23 247.333 166.734 247.333H151.952ZM162.636 230.439L160.811 240.911L166.919 240.938C168.823 240.938 170.419 240.467 171.706 239.526C172.993 238.567 173.76 237.279 174.006 235.662C174.253 234.063 174.033 232.82 173.345 231.932C172.675 231.026 171.538 230.537 169.934 230.466L162.636 230.439ZM163.588 224.79L168.85 224.844C170.807 224.808 172.402 224.346 173.636 223.458C174.888 222.57 175.637 221.335 175.884 219.754C176.325 216.628 174.694 215.056 170.992 215.038L165.28 215.011L163.588 224.79Z" fill="black"/>
<path d="M201.217 247.866C198.661 247.813 196.405 247.209 194.448 246.054C192.509 244.882 190.966 243.203 189.82 241.018C188.692 238.815 188.039 236.293 187.863 233.45C187.669 230.537 187.978 227.428 188.789 224.124C189.6 220.82 190.904 217.916 192.702 215.411C194.501 212.906 196.607 211.032 199.023 209.789C201.455 208.545 204.082 207.95 206.903 208.003C209.494 208.057 211.76 208.678 213.699 209.869C215.638 211.041 217.163 212.737 218.274 214.958C219.385 217.161 220.019 219.665 220.178 222.472C220.354 225.599 220.019 228.814 219.173 232.118C218.327 235.422 217.013 238.282 215.233 240.698C213.452 243.114 211.363 244.926 208.966 246.134C206.586 247.342 204.003 247.919 201.217 247.866ZM212.192 226.869L212.403 224.337C212.58 221.175 212.156 218.777 211.134 217.143C210.129 215.509 208.595 214.656 206.533 214.585C203.307 214.478 200.741 215.917 198.837 218.902C196.951 221.886 195.885 226.061 195.638 231.425C195.461 234.57 195.876 236.994 196.881 238.7C197.886 240.387 199.446 241.267 201.561 241.338C204.329 241.462 206.621 240.379 208.437 238.087C210.253 235.778 211.443 232.518 212.007 228.308L212.192 226.869Z" fill="black"/>
<path d="M257.411 208.536L253.074 234.117C252.475 238.398 250.712 241.782 247.785 244.269C244.859 246.756 241.227 247.964 236.891 247.893C234.176 247.839 231.813 247.244 229.804 246.107C227.811 244.953 226.339 243.336 225.387 241.258C224.435 239.162 224.109 236.79 224.409 234.143L228.719 208.536H236.467L232.157 234.17C232.034 235.165 232.025 236.097 232.131 236.968C232.483 239.846 234.184 241.338 237.234 241.444C239.42 241.515 241.21 240.911 242.602 239.632C243.995 238.353 244.894 236.524 245.3 234.143L249.637 208.536H257.411Z" fill="black"/>
<path d="M290.863 215.011H279.439L273.886 247.333H266.138L271.691 215.011H260.399L261.536 208.536H292L290.863 215.011Z" fill="black"/>
<path d="M159.7 272.203L164.434 300.262L178.793 272.203H189.106L182.416 311H174.641L176.545 299.942L180.3 282.675L165.544 311H160.229L155.073 281.689L152.587 300.794L150.815 311H143.067L149.757 272.203H159.7Z" fill="black"/>
<path d="M214.757 294.186H200.001L198.203 304.578H215.55L214.44 311H189.344L196.034 272.203H221.077L219.94 278.678H202.672L201.059 287.924H215.867L214.757 294.186Z" fill="black"/>
</g>
<defs>
<filter id="filter0_ii" x="0" y="0" width="384" height="523" filterUnits="userSpaceOnUse" color-interpolation-filters="sRGB">
<feFlood flood-opacity="0" result="BackgroundImageFix"/>
<feBlend mode="normal" in="SourceGraphic" in2="BackgroundImageFix" result="shape"/>
<feColorMatrix in="SourceAlpha" type="matrix" values="0 0 0 0 0 0 0 0 0 0 0 0 0 0 0 0 0 0 127 0" result="hardAlpha"/>
<feOffset dy="4"/>
<feGaussianBlur stdDeviation="6"/>
<feComposite in2="hardAlpha" operator="arithmetic" k2="-1" k3="1"/>
<feColorMatrix type="matrix" values="0 0 0 0 0 0 0 0 0 0 0 0 0 0 0 0 0 0 0.24 0"/>
<feBlend mode="normal" in2="shape" result="effect1_innerShadow"/>
<feColorMatrix in="SourceAlpha" type="matrix" values="0 0 0 0 0 0 0 0 0 0 0 0 0 0 0 0 0 0 127 0" result="hardAlpha"/>
<feOffset dx="4" dy="4"/>
<feGaussianBlur stdDeviation="2"/>
<feComposite in2="hardAlpha" operator="arithmetic" k2="-1" k3="1"/>
<feColorMatrix type="matrix" values="0 0 0 0 0 0 0 0 0 0 0 0 0 0 0 0 0 0 0.25 0"/>
<feBlend mode="normal" in2="effect1_innerShadow" result="effect2_innerShadow"/>
</filter>
<filter id="filter1_d" x="109" y="208" width="187" height="111" filterUnits="userSpaceOnUse" color-interpolation-filters="sRGB">
<feFlood flood-opacity="0" result="BackgroundImageFix"/>
<feColorMatrix in="SourceAlpha" type="matrix" values="0 0 0 0 0 0 0 0 0 0 0 0 0 0 0 0 0 0 127 0"/>
<feOffset dy="4"/>
<feGaussianBlur stdDeviation="2"/>
<feColorMatrix type="matrix" values="0 0 0 0 0 0 0 0 0 0 0 0 0 0 0 0 0 0 0.25 0"/>
<feBlend mode="normal" in2="BackgroundImageFix" result="effect1_dropShadow"/>
<feBlend mode="normal" in="SourceGraphic" in2="effect1_dropShadow" result="shape"/>
</filter>
</defs>
</svg>
