<svg width="394" height="569" viewBox="0 0 394 569" fill="none" xmlns="http://www.w3.org/2000/svg">
<path d="M223.087 569H0L170.913 0H394L223.087 569Z" fill="#FFD600"/>
<path d="M379 50L155.913 50L170.913 0L394 0L379 50Z" fill="black"/>
<g filter="url(#filter0_d)">
<path d="M123.922 297L129.852 262.875L140.492 262.898C144.445 262.914 147.414 263.719 149.398 265.312C151.383 266.906 152.281 269.148 152.094 272.039C151.875 275.492 149.883 278.016 146.117 279.609C147.477 280.078 148.531 280.961 149.281 282.258C150.031 283.539 150.352 285.055 150.242 286.805C150.023 290.023 148.758 292.531 146.445 294.328C144.148 296.109 141.008 297 137.023 297H123.922ZM133.391 282.141L131.773 291.352L137.188 291.375C138.875 291.375 140.289 290.961 141.43 290.133C142.57 289.289 143.25 288.156 143.469 286.734C143.688 285.328 143.492 284.234 142.883 283.453C142.289 282.656 141.281 282.227 139.859 282.164L133.391 282.141ZM134.234 277.172L138.898 277.219C140.633 277.188 142.047 276.781 143.141 276C144.25 275.219 144.914 274.133 145.133 272.742C145.523 269.992 144.078 268.609 140.797 268.594L135.734 268.57L134.234 277.172ZM161.727 291.352H176.211L175.227 297H153.875L159.805 262.875H166.672L161.727 291.352ZM191.539 297.469C189.273 297.422 187.273 296.891 185.539 295.875C183.82 294.844 182.453 293.367 181.438 291.445C180.438 289.508 179.859 287.289 179.703 284.789C179.531 282.227 179.805 279.492 180.523 276.586C181.242 273.68 182.398 271.125 183.992 268.922C185.586 266.719 187.453 265.07 189.594 263.977C191.75 262.883 194.078 262.359 196.578 262.406C198.875 262.453 200.883 263 202.602 264.047C204.32 265.078 205.672 266.57 206.656 268.523C207.641 270.461 208.203 272.664 208.344 275.133C208.5 277.883 208.203 280.711 207.453 283.617C206.703 286.523 205.539 289.039 203.961 291.164C202.383 293.289 200.531 294.883 198.406 295.945C196.297 297.008 194.008 297.516 191.539 297.469ZM201.266 279L201.453 276.773C201.609 273.992 201.234 271.883 200.328 270.445C199.438 269.008 198.078 268.258 196.25 268.195C193.391 268.102 191.117 269.367 189.43 271.992C187.758 274.617 186.812 278.289 186.594 283.008C186.438 285.773 186.805 287.906 187.695 289.406C188.586 290.891 189.969 291.664 191.844 291.727C194.297 291.836 196.328 290.883 197.938 288.867C199.547 286.836 200.602 283.969 201.102 280.266L201.266 279ZM237.57 292.688C236.352 294.234 234.562 295.43 232.203 296.273C229.859 297.102 227.211 297.492 224.258 297.445C221.93 297.43 219.883 296.922 218.117 295.922C216.352 294.906 214.961 293.453 213.945 291.562C212.93 289.672 212.352 287.516 212.211 285.094C212.055 282.844 212.289 280.203 212.914 277.172C213.555 274.125 214.641 271.461 216.172 269.18C217.719 266.883 219.57 265.172 221.727 264.047C223.883 262.906 226.273 262.359 228.898 262.406C232.461 262.469 235.25 263.477 237.266 265.43C239.281 267.367 240.43 270.148 240.711 273.773L234.102 273.75C233.93 271.844 233.422 270.438 232.578 269.531C231.734 268.625 230.477 268.141 228.805 268.078C225.914 267.984 223.633 269.258 221.961 271.898C220.305 274.523 219.359 278.336 219.125 283.336C218.969 286.008 219.375 288.078 220.344 289.547C221.328 291.016 222.82 291.766 224.82 291.797C227.148 291.859 229.133 291.305 230.773 290.133L231.922 284.25H225.688L226.602 279.07H239.633L237.57 292.688ZM260.961 287.883C261.289 286.023 260.375 284.602 258.219 283.617L253.695 281.812C248.445 279.469 245.953 276.242 246.219 272.133C246.328 270.227 246.953 268.539 248.094 267.07C249.234 265.602 250.836 264.453 252.898 263.625C254.961 262.781 257.188 262.375 259.578 262.406C262.875 262.469 265.539 263.453 267.57 265.359C269.602 267.25 270.602 269.789 270.57 272.977H263.727C263.805 271.43 263.461 270.227 262.695 269.367C261.945 268.508 260.773 268.062 259.18 268.031C257.617 268 256.258 268.359 255.102 269.109C253.945 269.844 253.258 270.859 253.039 272.156C252.742 273.859 253.883 275.211 256.461 276.211L259.555 277.383L261.336 278.203C265.945 280.484 268.102 283.688 267.805 287.812C267.664 289.828 267.016 291.57 265.859 293.039C264.719 294.492 263.156 295.609 261.172 296.391C259.203 297.172 257.031 297.539 254.656 297.492C252.234 297.445 250.078 296.938 248.188 295.969C246.297 295 244.859 293.633 243.875 291.867C242.953 290.227 242.523 288.352 242.586 286.242L249.453 286.266C249.234 289.969 251.055 291.852 254.914 291.914C256.586 291.914 257.961 291.547 259.039 290.812C260.117 290.078 260.758 289.102 260.961 287.883Z" fill="black"/>
</g>
<defs>
<filter id="filter0_d" x="119.922" y="262.403" width="154.649" height="43.0928" filterUnits="userSpaceOnUse" color-interpolation-filters="sRGB">
<feFlood flood-opacity="0" result="BackgroundImageFix"/>
<feColorMatrix in="SourceAlpha" type="matrix" values="0 0 0 0 0 0 0 0 0 0 0 0 0 0 0 0 0 0 127 0" result="hardAlpha"/>
<feOffset dy="4"/>
<feGaussianBlur stdDeviation="2"/>
<feComposite in2="hardAlpha" operator="out"/>
<feColorMatrix type="matrix" values="0 0 0 0 0 0 0 0 0 0 0 0 0 0 0 0 0 0 0.25 0"/>
<feBlend mode="normal" in2="BackgroundImageFix" result="effect1_dropShadow"/>
<feBlend mode="normal" in="SourceGraphic" in2="effect1_dropShadow" result="shape"/>
</filter>
</defs>
</svg>
