<svg width="395" height="570" viewBox="0 0 395 570" fill="none" xmlns="http://www.w3.org/2000/svg">
<path d="M171.913 0H395L224.087 569H1L171.913 0Z" fill="#FFD600"/>
<path d="M15 519H240L225 569.5H0L15 519Z" fill="black"/>
<g filter="url(#filter0_d)">
<path d="M137.922 257L143.852 222.875L154.492 222.898C158.445 222.914 161.414 223.719 163.398 225.312C165.383 226.906 166.281 229.148 166.094 232.039C165.875 235.492 163.883 238.016 160.117 239.609C161.477 240.078 162.531 240.961 163.281 242.258C164.031 243.539 164.352 245.055 164.242 246.805C164.023 250.023 162.758 252.531 160.445 254.328C158.148 256.109 155.008 257 151.023 257H137.922ZM147.391 242.141L145.773 251.352L151.188 251.375C152.875 251.375 154.289 250.961 155.43 250.133C156.57 249.289 157.25 248.156 157.469 246.734C157.688 245.328 157.492 244.234 156.883 243.453C156.289 242.656 155.281 242.227 153.859 242.164L147.391 242.141ZM148.234 237.172L152.898 237.219C154.633 237.188 156.047 236.781 157.141 236C158.25 235.219 158.914 234.133 159.133 232.742C159.523 229.992 158.078 228.609 154.797 228.594L149.734 228.57L148.234 237.172ZM175.727 251.352H190.211L189.227 257H167.875L173.805 222.875H180.672L175.727 251.352ZM205.539 257.469C203.273 257.422 201.273 256.891 199.539 255.875C197.82 254.844 196.453 253.367 195.438 251.445C194.438 249.508 193.859 247.289 193.703 244.789C193.531 242.227 193.805 239.492 194.523 236.586C195.242 233.68 196.398 231.125 197.992 228.922C199.586 226.719 201.453 225.07 203.594 223.977C205.75 222.883 208.078 222.359 210.578 222.406C212.875 222.453 214.883 223 216.602 224.047C218.32 225.078 219.672 226.57 220.656 228.523C221.641 230.461 222.203 232.664 222.344 235.133C222.5 237.883 222.203 240.711 221.453 243.617C220.703 246.523 219.539 249.039 217.961 251.164C216.383 253.289 214.531 254.883 212.406 255.945C210.297 257.008 208.008 257.516 205.539 257.469ZM215.266 239L215.453 236.773C215.609 233.992 215.234 231.883 214.328 230.445C213.438 229.008 212.078 228.258 210.25 228.195C207.391 228.102 205.117 229.367 203.43 231.992C201.758 234.617 200.812 238.289 200.594 243.008C200.438 245.773 200.805 247.906 201.695 249.406C202.586 250.891 203.969 251.664 205.844 251.727C208.297 251.836 210.328 250.883 211.938 248.867C213.547 246.836 214.602 243.969 215.102 240.266L215.266 239ZM251.57 252.688C250.352 254.234 248.562 255.43 246.203 256.273C243.859 257.102 241.211 257.492 238.258 257.445C235.93 257.43 233.883 256.922 232.117 255.922C230.352 254.906 228.961 253.453 227.945 251.562C226.93 249.672 226.352 247.516 226.211 245.094C226.055 242.844 226.289 240.203 226.914 237.172C227.555 234.125 228.641 231.461 230.172 229.18C231.719 226.883 233.57 225.172 235.727 224.047C237.883 222.906 240.273 222.359 242.898 222.406C246.461 222.469 249.25 223.477 251.266 225.43C253.281 227.367 254.43 230.148 254.711 233.773L248.102 233.75C247.93 231.844 247.422 230.438 246.578 229.531C245.734 228.625 244.477 228.141 242.805 228.078C239.914 227.984 237.633 229.258 235.961 231.898C234.305 234.523 233.359 238.336 233.125 243.336C232.969 246.008 233.375 248.078 234.344 249.547C235.328 251.016 236.82 251.766 238.82 251.797C241.148 251.859 243.133 251.305 244.773 250.133L245.922 244.25H239.688L240.602 239.07H253.633L251.57 252.688ZM274.961 247.883C275.289 246.023 274.375 244.602 272.219 243.617L267.695 241.812C262.445 239.469 259.953 236.242 260.219 232.133C260.328 230.227 260.953 228.539 262.094 227.07C263.234 225.602 264.836 224.453 266.898 223.625C268.961 222.781 271.188 222.375 273.578 222.406C276.875 222.469 279.539 223.453 281.57 225.359C283.602 227.25 284.602 229.789 284.57 232.977H277.727C277.805 231.43 277.461 230.227 276.695 229.367C275.945 228.508 274.773 228.062 273.18 228.031C271.617 228 270.258 228.359 269.102 229.109C267.945 229.844 267.258 230.859 267.039 232.156C266.742 233.859 267.883 235.211 270.461 236.211L273.555 237.383L275.336 238.203C279.945 240.484 282.102 243.688 281.805 247.812C281.664 249.828 281.016 251.57 279.859 253.039C278.719 254.492 277.156 255.609 275.172 256.391C273.203 257.172 271.031 257.539 268.656 257.492C266.234 257.445 264.078 256.938 262.188 255.969C260.297 255 258.859 253.633 257.875 251.867C256.953 250.227 256.523 248.352 256.586 246.242L263.453 246.266C263.234 249.969 265.055 251.852 268.914 251.914C270.586 251.914 271.961 251.547 273.039 250.812C274.117 250.078 274.758 249.102 274.961 247.883Z" fill="black"/>
</g>
<defs>
<filter id="filter0_d" x="133.922" y="222.403" width="154.649" height="43.0928" filterUnits="userSpaceOnUse" color-interpolation-filters="sRGB">
<feFlood flood-opacity="0" result="BackgroundImageFix"/>
<feColorMatrix in="SourceAlpha" type="matrix" values="0 0 0 0 0 0 0 0 0 0 0 0 0 0 0 0 0 0 127 0" result="hardAlpha"/>
<feOffset dy="4"/>
<feGaussianBlur stdDeviation="2"/>
<feComposite in2="hardAlpha" operator="out"/>
<feColorMatrix type="matrix" values="0 0 0 0 0 0 0 0 0 0 0 0 0 0 0 0 0 0 0.25 0"/>
<feBlend mode="normal" in2="BackgroundImageFix" result="effect1_dropShadow"/>
<feBlend mode="normal" in="SourceGraphic" in2="effect1_dropShadow" result="shape"/>
</filter>
</defs>
</svg>
