<svg width="380" height="519" viewBox="0 0 380 519" fill="none" xmlns="http://www.w3.org/2000/svg">
<g filter="url(#filter0_ii)">
<path d="M380 0H156.913L1.01874 519H224.105L380 0Z" fill="#FFD600"/>
</g>
<g filter="url(#filter1_d)">
<path d="M177.603 208L182.044 234.266L195.513 208H205.187L198.911 244.318H191.618L193.404 233.967L196.927 217.803L183.085 244.318H178.1L173.263 216.88L170.931 234.765L169.269 244.318H162.001L168.277 208H177.603Z" fill="black"/>
<path d="M220.07 224.313L230.165 208H238.5L222.724 231.547L220.541 244.318H213.149L215.506 230.724L208.015 208.025L215.679 208L220.07 224.313Z" fill="black"/>
<path d="M113.664 298.349C113.383 300.86 112.531 303.089 111.109 305.034C109.687 306.963 107.835 308.451 105.553 309.499C103.271 310.53 100.807 311.021 98.1609 310.971C95.7796 310.921 93.7042 310.372 91.9348 309.325C90.1653 308.26 88.768 306.73 87.7427 304.735C86.734 302.723 86.1635 300.411 86.0312 297.8C85.9154 295.755 86.1221 293.211 86.6513 290.168C87.197 287.125 88.1561 284.422 89.5287 282.061C90.9178 279.7 92.5632 277.829 94.4649 276.449C97.1438 274.52 100.203 273.588 103.643 273.655C107.38 273.721 110.34 274.885 112.523 277.147C114.722 279.392 115.93 282.518 116.145 286.526L108.901 286.501C108.901 284.206 108.447 282.527 107.537 281.462C106.628 280.398 105.214 279.833 103.296 279.766C100.815 279.683 98.7727 280.573 97.1687 282.435C95.5811 284.298 94.5145 287.016 93.9688 290.592C93.4396 294.067 93.2081 296.67 93.2743 298.399C93.3569 300.594 93.8448 302.216 94.7378 303.263C95.6307 304.294 96.8793 304.835 98.4833 304.885C100.699 304.968 102.469 304.444 103.792 303.313C105.131 302.166 106.016 300.528 106.446 298.399L113.664 298.349Z" fill="black"/>
<path d="M125.025 304.46H140.354L139.313 310.472H116.715L122.991 274.154H130.259L125.025 304.46Z" fill="black"/>
<path d="M151.393 310.472H144.125L150.376 274.154H157.643L151.393 310.472Z" fill="black"/>
<path d="M182.126 294.732H168.285L166.598 304.46H182.87L181.828 310.472H158.288L164.564 274.154H188.055L186.988 280.215H170.79L169.277 288.871H183.168L182.126 294.732Z" fill="black"/>
<path d="M214.819 310.472H207.775L197.729 286.251L193.536 310.472H186.269L192.544 274.154H199.564L209.635 298.424L213.827 274.154H221.07L214.819 310.472Z" fill="black"/>
<path d="M252.225 280.215H241.51L236.3 310.472H229.033L234.242 280.215H223.65L224.716 274.154H253.292L252.225 280.215Z" fill="black"/>
<path d="M270.829 300.769C271.176 298.79 270.209 297.277 267.927 296.229L263.14 294.308C257.583 291.814 254.946 288.38 255.227 284.007C255.343 281.978 256.004 280.182 257.211 278.619C258.418 277.056 260.113 275.833 262.296 274.952C264.479 274.054 266.836 273.622 269.366 273.655C272.855 273.721 275.674 274.769 277.824 276.798C279.974 278.81 281.032 281.512 280.999 284.905H273.756C273.839 283.258 273.475 281.978 272.665 281.063C271.871 280.149 270.631 279.675 268.944 279.641C267.29 279.608 265.852 279.991 264.628 280.789C263.404 281.57 262.677 282.651 262.445 284.031C262.131 285.844 263.338 287.282 266.067 288.347L269.341 289.594L271.226 290.467C276.104 292.895 278.386 296.304 278.072 300.694C277.923 302.839 277.237 304.693 276.013 306.256C274.806 307.803 273.153 308.992 271.052 309.823C268.969 310.655 266.67 311.046 264.157 310.996C261.593 310.946 259.311 310.405 257.31 309.374C255.309 308.343 253.788 306.888 252.746 305.009C251.771 303.263 251.316 301.268 251.382 299.023L258.65 299.048C258.418 302.989 260.345 304.993 264.429 305.059C266.199 305.059 267.654 304.668 268.795 303.887C269.936 303.105 270.614 302.066 270.829 300.769Z" fill="black"/>
</g>
<defs>
<filter id="filter0_ii" x="0" y="0" width="384" height="523" filterUnits="userSpaceOnUse" color-interpolation-filters="sRGB">
<feFlood flood-opacity="0" result="BackgroundImageFix"/>
<feBlend mode="normal" in="SourceGraphic" in2="BackgroundImageFix" result="shape"/>
<feColorMatrix in="SourceAlpha" type="matrix" values="0 0 0 0 0 0 0 0 0 0 0 0 0 0 0 0 0 0 127 0" result="hardAlpha"/>
<feOffset dy="4"/>
<feGaussianBlur stdDeviation="6"/>
<feComposite in2="hardAlpha" operator="arithmetic" k2="-1" k3="1"/>
<feColorMatrix type="matrix" values="0 0 0 0 0 0 0 0 0 0 0 0 0 0 0 0 0 0 0.24 0"/>
<feBlend mode="normal" in2="shape" result="effect1_innerShadow"/>
<feColorMatrix in="SourceAlpha" type="matrix" values="0 0 0 0 0 0 0 0 0 0 0 0 0 0 0 0 0 0 127 0" result="hardAlpha"/>
<feOffset dx="4" dy="4"/>
<feGaussianBlur stdDeviation="2"/>
<feComposite in2="hardAlpha" operator="arithmetic" k2="-1" k3="1"/>
<feColorMatrix type="matrix" values="0 0 0 0 0 0 0 0 0 0 0 0 0 0 0 0 0 0 0.25 0"/>
<feBlend mode="normal" in2="effect1_innerShadow" result="effect2_innerShadow"/>
</filter>
<filter id="filter1_d" x="82" y="208" width="203" height="111" filterUnits="userSpaceOnUse" color-interpolation-filters="sRGB">
<feFlood flood-opacity="0" result="BackgroundImageFix"/>
<feColorMatrix in="SourceAlpha" type="matrix" values="0 0 0 0 0 0 0 0 0 0 0 0 0 0 0 0 0 0 127 0"/>
<feOffset dy="4"/>
<feGaussianBlur stdDeviation="2"/>
<feColorMatrix type="matrix" values="0 0 0 0 0 0 0 0 0 0 0 0 0 0 0 0 0 0 0.25 0"/>
<feBlend mode="normal" in2="BackgroundImageFix" result="effect1_dropShadow"/>
<feBlend mode="normal" in="SourceGraphic" in2="effect1_dropShadow" result="shape"/>
</filter>
</defs>
</svg>
