<svg width="366" height="58" viewBox="0 0 366 58" fill="none" xmlns="http://www.w3.org/2000/svg">
<path d="M46.1825 18.112C44.5985 14.584 42.5825 11.56 39.9185 8.896C37.3265 6.304 34.2305 4.216 30.7745 2.704C27.2465 1.192 23.5745 0.399999 19.6145 0.399999H0.462494L10.0385 10.048H19.6145C22.2065 10.048 24.7265 10.552 27.0305 11.488C29.3345 12.496 31.4225 13.936 33.1505 15.664C34.9505 17.464 36.3185 19.48 37.3265 21.784C38.3345 24.16 38.8385 26.608 38.8385 29.2C38.8385 31.792 38.3345 34.24 37.3265 36.616C36.3185 38.92 34.9505 40.936 33.2225 42.736C31.4945 44.536 29.4065 45.904 27.1025 46.912C24.7985 47.848 22.2785 48.352 19.6145 48.352H10.0385L0.462494 58H19.6145C23.5745 58 27.3185 57.208 30.7745 55.696C34.3025 54.184 37.3985 52.096 39.9905 49.504C42.5825 46.84 44.5985 43.816 46.1825 40.288C47.6945 36.832 48.4145 33.16 48.4145 29.2C48.4145 25.24 47.6945 21.568 46.1825 18.112ZM54.1953 57.208V58H92.5713V48.352H63.7713L54.1953 57.208ZM54.1953 0.399999L63.7713 10.048H92.5713V0.399999H54.1953ZM54.1953 24.448V34.024H63.7713H92.5713V24.448H63.7713H54.1953ZM126.657 34.024C128.673 34.024 130.329 34.744 131.769 36.184C133.137 37.624 133.929 39.28 133.929 41.224C133.929 42.232 133.713 43.168 133.353 44.032C132.993 44.968 132.489 45.688 131.841 46.336C131.193 46.984 130.401 47.488 129.465 47.848C128.601 48.208 127.665 48.352 126.657 48.352V58C131.337 58 135.297 56.344 138.537 53.104C141.849 49.792 143.505 45.832 143.505 41.224C143.505 36.616 141.849 32.656 138.537 29.344C135.297 26.104 131.337 24.448 126.657 24.448H112.329C110.241 24.448 108.585 23.728 107.145 22.288C105.777 20.848 105.129 19.192 105.129 17.176C105.129 16.24 105.273 15.304 105.633 14.44C105.993 13.576 106.497 12.784 107.145 12.136C107.865 11.416 108.585 10.912 109.521 10.552C110.385 10.192 111.321 10.048 112.329 10.048V0.399999C107.649 0.399999 103.689 2.056 100.449 5.368C97.2091 8.68 95.5531 12.568 95.5531 17.176C95.5531 21.856 97.2091 25.816 100.449 29.128C103.689 32.368 107.649 34.024 112.329 34.024H126.657ZM166.526 9.904L156.95 0.399999V58L166.526 48.352V9.904ZM207.397 46.696C204.949 47.776 202.285 48.352 199.405 48.352C194.149 48.352 189.541 46.552 185.797 42.808C182.053 39.064 180.253 34.456 180.253 29.2C180.253 23.944 182.053 19.408 185.797 15.664C189.613 11.848 194.149 10.048 199.405 10.048C204.733 10.048 209.197 11.92 212.941 15.664L219.853 8.896C217.189 6.232 214.093 4.144 210.637 2.632C207.109 1.12 203.365 0.399999 199.405 0.399999C191.413 0.399999 184.645 3.208 179.101 8.896C173.413 14.512 170.605 21.28 170.605 29.2C170.605 37.192 173.485 43.888 179.101 49.504C184.717 55.12 191.413 58 199.405 58C201.925 58 204.301 57.712 206.605 57.064C208.981 56.488 211.141 55.624 213.157 54.472C215.245 53.32 217.117 51.952 218.845 50.368C220.645 48.784 222.157 46.984 223.453 45.04L213.877 41.872C212.005 43.96 209.845 45.544 207.397 46.696ZM199.405 34.024H213.877L223.453 24.448H199.405V34.024ZM263.204 0.399999V34.888L224.9 0.399999V14.944L272.78 58V57.928V57.856V0.399999H263.204ZM279.758 57.208V58H318.134V48.352H289.334L279.758 57.208ZM279.758 0.399999L289.334 10.048H318.134V0.399999H279.758ZM279.758 24.448V34.024H289.334H318.134V24.448H289.334H279.758ZM361.804 30.424C364.108 27.184 365.188 23.584 365.188 19.552C365.188 14.296 363.316 9.832 359.572 6.016C355.828 2.272 351.292 0.399999 346.036 0.399999H320.764L325.732 8.968L326.812 10.048H346.036C348.628 10.048 350.86 10.984 352.732 12.856C354.676 14.728 355.612 16.96 355.612 19.552C355.612 22.216 354.676 24.52 352.732 26.392C350.86 28.264 348.628 29.2 346.036 29.2L337.468 29.128L354.172 58H365.188L353.38 37.336C356.764 35.968 359.572 33.664 361.804 30.424Z" fill="black"/>
</svg>
