<svg width="198" height="180" viewBox="0 0 198 180" fill="none" xmlns="http://www.w3.org/2000/svg">
<path d="M125.703 126.94L114.729 169.655L163.114 180L174.089 137.285L125.703 126.94ZM127.25 129.196L171.603 138.678L161.567 177.742L117.214 168.26L127.25 129.196ZM136.271 154.717L133.267 159.845C133.195 159.996 133.125 160.01 132.928 159.968L129.967 159.335C129.763 159.291 129.746 159.227 129.831 159.027L140.22 142.095C140.407 141.789 140.544 141.51 140.809 140.611C140.84 140.489 140.926 140.448 141.029 140.47L145.25 141.373C145.385 141.401 145.447 141.445 145.44 141.601L146.795 162.684C146.796 162.841 146.734 162.919 146.57 162.884L143.246 162.174C143.072 162.136 142.988 162.081 142.987 161.952L142.731 156.097L136.265 154.714L136.271 154.717ZM142.656 152.952C142.608 150.813 142.413 146.107 142.467 143.861L142.428 143.853C141.455 145.894 139.454 149.281 137.901 151.935L142.656 152.952ZM154.336 144.745C154.638 143.569 155.714 143.068 156.88 143.317C158.109 143.58 158.749 144.514 158.463 145.627C158.154 146.832 157.117 147.311 155.88 147.047C154.675 146.789 154.018 145.95 154.328 144.743L154.336 144.745ZM153.498 148.944C153.534 148.801 153.613 148.757 153.777 148.793L156.944 149.47C157.125 149.508 157.172 149.579 157.132 149.735L153.429 164.147C153.391 164.296 153.345 164.347 153.14 164.303L150.021 163.636C149.817 163.593 149.776 163.493 149.814 163.344L153.513 148.946L153.498 148.944Z" fill="black"/>
<path d="M56.3398 25.9677C55.614 24.1199 55.7344 22.0809 56.6745 20.2993C57.6146 18.5176 59.2974 17.1392 61.3527 16.4674C63.408 15.7955 65.6675 15.8852 67.6341 16.7167C69.6006 17.5482 71.1132 19.0534 71.839 20.9012C72.5648 22.749 72.4444 24.788 71.5043 26.5696C70.5642 28.3513 68.8814 29.7297 66.8261 30.4015C64.7708 31.0734 62.5113 30.9837 60.5448 30.1522C58.5782 29.3207 57.0657 27.8155 56.3398 25.9677ZM46.5555 45.5831C45.8297 43.7353 45.9501 41.6963 46.8902 39.9146C47.8303 38.133 49.5131 36.7546 51.5684 36.0828L59.318 33.5495L62.0547 40.5166C62.7805 42.3644 62.6601 44.4033 61.72 46.185C60.7799 47.9667 59.0971 49.345 57.0418 50.0169C54.9865 50.6887 52.727 50.5991 50.7604 49.7676C48.7939 48.936 47.2813 47.4308 46.5555 45.5831ZM48.1298 5.06649L53.6032 19.0006L61.3527 16.4674C63.408 15.7955 65.0909 14.4172 66.031 12.6355C66.9711 10.8538 67.0914 8.81485 66.3656 6.96707C65.6398 5.11929 64.1273 3.61408 62.1607 2.78258C60.1941 1.95108 57.9347 1.86139 55.8794 2.53325L48.1298 5.06649ZM35.3673 17.1C36.0931 18.9478 37.6057 20.453 39.5722 21.2845C41.5388 22.116 43.7983 22.2057 45.8536 21.5339L53.6032 19.0006L48.1298 5.06649L40.3802 7.59974C38.3249 8.27159 36.6421 9.64996 35.702 11.4316C34.7619 13.2133 34.6415 15.2523 35.3673 17.1ZM40.8407 31.0342C41.5665 32.882 43.079 34.3872 45.0456 35.2187C47.0122 36.0502 49.5131 36.7546 51.5684 36.0828L59.318 33.5495L53.6032 19.0006L45.8536 21.5339C43.7983 22.2057 42.1154 23.5841 41.1753 25.3658C40.2352 27.1474 40.1149 29.1864 40.8407 31.0342Z" fill="black"/>
<path d="M0 115.252L8.5476 156.484L54.7291 148.517L46.1815 107.285L0 115.252ZM2.28896 116.682L44.6215 109.379L52.4384 147.086L10.1059 154.389L2.28896 116.682ZM13.1634 122.984C13.1391 122.866 13.392 122.731 13.5493 122.703C15.189 122.354 16.8371 122.039 18.4923 121.758C23.8292 120.837 26.4581 123.157 27.1688 126.585C28.0978 131.067 24.9486 133.599 20.6032 134.349C19.8672 134.476 19.6119 134.484 19.101 134.572L20.5051 141.346C20.535 141.49 20.4873 141.562 20.33 141.59L17.3527 142.103C17.1954 142.13 17.1233 142.085 17.0934 141.941L13.1634 122.984ZM18.5174 131.757C18.9662 131.709 19.3198 131.648 20.0861 131.515C22.3331 131.128 24.3019 130.032 23.7241 127.245C23.2603 125.008 21.5067 124.134 18.9364 124.578C18.1773 124.709 17.4542 124.862 17.1064 124.951L18.5174 131.757ZM34.6482 126.799C33.1228 127.062 32.7574 127.852 32.8774 128.431C33.01 129.071 33.4465 129.446 35.6825 130.058C38.9757 130.881 40.1935 131.989 40.5858 133.882C41.1694 136.697 39.131 138.617 35.9589 139.164C34.2747 139.455 32.7731 139.379 31.8563 139.088C31.725 139.053 31.6763 138.97 31.6462 138.824L31.1097 136.236C31.0741 136.065 31.1522 135.987 31.2978 136.055C32.5917 136.542 34.0121 136.674 35.3854 136.434C36.9108 136.171 37.4229 135.483 37.2591 134.692C37.1265 134.053 36.5692 133.578 34.4441 132.982C31.4597 132.257 30.0641 131.236 29.6416 129.198C29.1706 126.926 30.7193 124.705 34.079 124.125C35.7329 123.84 36.946 123.873 37.6382 124.018C37.8141 124.081 37.8743 124.219 37.8987 124.337L38.3995 126.753C38.4294 126.897 38.3499 127.004 38.1494 126.974C37.1965 126.661 35.8724 126.583 34.6399 126.795L34.6482 126.799Z" fill="black"/>
<path d="M151.417 61.8902C149.846 67.7565 148.972 69.7375 143.768 70.1164C162.034 75.497 164.156 63.8385 164.156 63.8385L158.535 59.4545C158.535 59.4545 153.249 58.8904 151.417 61.8902V61.8902ZM193.401 27.2263C191.811 25.9864 189.373 27.1419 189.373 27.1419C185.752 28.0834 166.987 48.3132 166.987 48.3132L174.856 54.4508C174.856 54.4508 193.701 34.2831 194.142 30.8617C194.131 30.8529 194.99 28.4566 193.401 27.2263ZM160.451 57.4074L166.072 61.7914L172.94 56.498L165.071 50.3603L160.451 57.4074Z" fill="black"/>
</svg>
