<svg width="440" height="58" viewBox="0 0 440 58" fill="none" xmlns="http://www.w3.org/2000/svg">
<path d="M46.3022 18.112C44.7182 14.584 42.7022 11.56 40.0382 8.896C37.4462 6.304 34.3502 4.216 30.8942 2.704C27.3662 1.192 23.6942 0.399999 19.7342 0.399999H0.582184L10.1582 10.048H19.7342C22.3262 10.048 24.8462 10.552 27.1502 11.488C29.4542 12.496 31.5422 13.936 33.2702 15.664C35.0702 17.464 36.4382 19.48 37.4462 21.784C38.4542 24.16 38.9582 26.608 38.9582 29.2C38.9582 31.792 38.4542 34.24 37.4462 36.616C36.4382 38.92 35.0702 40.936 33.3422 42.736C31.6142 44.536 29.5262 45.904 27.2222 46.912C24.9182 47.848 22.3982 48.352 19.7342 48.352H10.1582L0.582184 58H19.7342C23.6942 58 27.4382 57.208 30.8942 55.696C34.4222 54.184 37.5182 52.096 40.1102 49.504C42.7022 46.84 44.7182 43.816 46.3022 40.288C47.8142 36.832 48.5342 33.16 48.5342 29.2C48.5342 25.24 47.8142 21.568 46.3022 18.112ZM55.755 57.208V58H94.131V48.352H65.331L55.755 57.208ZM55.755 0.399999L65.331 10.048H94.131V0.399999H55.755ZM55.755 24.448V34.024H65.331H94.131V24.448H65.331H55.755ZM106.568 0.399999L135.368 58L140.768 47.272L117.296 0.399999H106.568ZM143.39 57.208V58H181.766V48.352H152.966L143.39 57.208ZM143.39 0.399999L152.966 10.048H181.766V0.399999H143.39ZM143.39 24.448V34.024H152.966H181.766V24.448H152.966H143.39ZM203.779 48.352L194.203 58H232.579V48.352H203.779ZM194.203 0.399999V1.984V44.968L203.779 35.32V1.984V0.399999H194.203ZM261.793 0.399999C253.801 0.399999 247.033 3.28 241.489 8.896C235.873 14.512 232.993 21.28 232.993 29.2C232.993 37.192 235.873 43.888 241.489 49.504C247.105 55.12 253.801 58 261.793 58C269.785 58 276.481 55.12 282.097 49.504C287.785 43.96 290.665 37.192 290.665 29.2C290.665 21.28 287.785 14.512 282.097 8.896C276.481 3.28 269.785 0.399999 261.793 0.399999ZM261.793 10.048C267.049 10.048 271.585 11.92 275.329 15.664C279.073 19.408 280.945 23.944 280.945 29.2C280.945 34.456 279.145 38.992 275.329 42.808C271.585 46.552 267.049 48.352 261.793 48.352C256.537 48.352 251.929 46.552 248.185 42.808C244.441 39.064 242.641 34.456 242.641 29.2C242.641 23.944 244.441 19.408 248.185 15.664C252.001 11.848 256.537 10.048 261.793 10.048ZM341.611 6.016C337.867 2.272 333.331 0.399999 328.075 0.399999H299.275L308.851 10.048H328.075C330.667 10.048 332.899 10.984 334.771 12.856C336.715 14.728 337.651 17.032 337.651 19.624C337.651 22.288 336.643 24.52 334.771 26.392C332.899 28.264 330.667 29.2 328.075 29.2H308.851H299.275V58H308.851V38.848H328.075C333.331 38.848 337.867 36.976 341.611 33.232C345.427 29.488 347.227 24.88 347.227 19.624C347.227 14.368 345.355 9.832 341.611 6.016ZM352.198 57.208V58H390.574V48.352H361.774L352.198 57.208ZM352.198 0.399999L361.774 10.048H390.574V0.399999H352.198ZM352.198 24.448V34.024H361.774H390.574V24.448H361.774H352.198ZM435.684 30.424C437.988 27.184 439.068 23.584 439.068 19.552C439.068 14.296 437.196 9.832 433.452 6.016C429.708 2.272 425.172 0.399999 419.916 0.399999H394.644L399.612 8.968L400.692 10.048H419.916C422.508 10.048 424.74 10.984 426.612 12.856C428.556 14.728 429.492 16.96 429.492 19.552C429.492 22.216 428.556 24.52 426.612 26.392C424.74 28.264 422.508 29.2 419.916 29.2L411.348 29.128L428.052 58H439.068L427.26 37.336C430.644 35.968 433.452 33.664 435.684 30.424Z" fill="white"/>
</svg>
