<svg width="202" height="181" viewBox="0 0 202 181" fill="none" xmlns="http://www.w3.org/2000/svg">
<path d="M26.1383 55.4142L4.31098 42.6104L19.9131 22.6871L23.8024 25.7316L11.7054 41.2039L28.6382 51.1544L26.1383 55.4142Z" fill="white"/>
<path d="M56.3254 47.2392L52.4361 44.1947L64.5332 28.7224L47.6004 18.7719L50.1003 14.5121L71.9276 27.3159L56.3254 47.2392Z" fill="white"/>
<path d="M38.296 57.197L33.3952 56.7021L37.9426 12.7293L42.8433 13.2241L38.296 57.197Z" fill="white"/>
<path d="M186.718 5.3535L176.045 2.34786C175.441 2.17599 174.799 2.19745 174.208 2.40928C173.618 2.62111 173.108 3.01276 172.75 3.52976L156.995 24.1427L147.68 19.3475C147.26 19.1293 146.777 19.066 146.316 19.1686C145.855 19.2712 145.445 19.5333 145.157 19.9091L142.957 22.7835C142.785 23.0066 142.661 23.2634 142.593 23.5376C142.526 23.8118 142.516 24.0973 142.565 24.3756C142.614 24.654 142.72 24.9192 142.877 25.1541C143.033 25.389 143.237 25.5885 143.475 25.7398L151.751 31.0016L145.796 38.7934C145.625 39.0174 145.502 39.2749 145.436 39.5494C145.37 39.824 145.362 40.1094 145.412 40.3876C145.462 40.6657 145.569 40.9303 145.727 41.1645C145.885 41.3986 146.09 41.597 146.328 41.7471L149.384 43.6872C149.784 43.9407 150.259 44.0453 150.728 43.9827C151.196 43.9201 151.627 43.6943 151.946 43.3447L159.036 35.625L180.941 49.5505C181.454 49.9126 182.066 50.1048 182.692 50.1003C183.319 50.0958 183.927 49.8949 184.434 49.5255L193.424 43.0162C193.888 42.6816 194.247 42.2218 194.46 41.6901C194.674 41.1584 194.733 40.5766 194.631 40.0119L188.895 7.75309C188.691 6.6035 187.842 5.66605 186.72 5.34997L186.718 5.3535ZM181.764 36.9164L165.534 28.5527L177.887 15.1073L181.764 36.9164Z" fill="white"/>
<path d="M198.309 137.27C199.209 133.225 196.663 129.22 192.618 128.319C188.573 127.419 184.568 129.966 183.667 134.01C182.926 137.341 184.524 140.646 187.365 142.21C186.982 143.671 186.4 144.732 185.606 145.362C183.806 146.805 180.638 146.408 177.286 145.978C174.652 145.642 171.923 145.303 169.502 145.869L172.436 132.691C175.617 132.42 178.385 130.126 179.115 126.85C180.015 122.805 177.468 118.8 173.424 117.899C169.379 116.999 165.373 119.546 164.473 123.59C163.744 126.866 165.277 130.118 168.043 131.713L163.983 149.951C160.799 150.232 158.031 152.526 157.302 155.802C156.401 159.846 158.948 163.852 162.993 164.752C167.038 165.653 171.043 163.106 171.943 159.061C172.636 155.95 171.289 152.855 168.778 151.192C169.168 150.779 169.691 150.454 170.414 150.269C172.064 149.849 174.323 150.14 176.724 150.444C180.665 150.947 185.131 151.509 188.425 148.881C190.06 147.574 191.166 145.668 191.784 143.107C194.896 142.763 197.592 140.491 198.309 137.27ZM172.12 123.756C172.925 123.935 173.437 124.741 173.258 125.546C173.079 126.351 172.273 126.863 171.468 126.684C170.663 126.505 170.15 125.699 170.33 124.894C170.509 124.089 171.314 123.577 172.12 123.756ZM164.297 158.896C163.491 158.716 162.979 157.911 163.159 157.105C163.338 156.3 164.143 155.788 164.949 155.967C165.754 156.147 166.266 156.952 166.087 157.757C165.908 158.563 165.102 159.075 164.297 158.896ZM191.314 134.176C192.119 134.355 192.632 135.161 192.452 135.966C192.273 136.771 191.467 137.283 190.662 137.104C189.857 136.925 189.345 136.119 189.524 135.314C189.703 134.509 190.509 133.997 191.314 134.176Z" fill="white"/>
<path d="M76.339 140.076C75.7364 139.998 75.1324 139.933 74.5271 139.883C74.5443 139.479 74.5537 139.075 74.5553 138.669C74.5832 132.154 72.7227 127.285 69.5087 126.207C66.4307 125.171 62.2443 127.742 58.4838 132.629C58.1143 133.111 57.7564 133.603 57.4101 134.104C57.0677 133.887 56.7193 133.676 56.3646 133.473C50.7284 130.197 45.5766 129.377 43.0366 131.622C40.6016 133.773 40.7382 138.676 43.0957 144.37C43.3302 144.933 43.5785 145.49 43.8406 146.042C43.2192 146.362 42.6071 146.699 42.0053 147.053C36.8016 150.134 33.8395 153.916 34.4798 157.089C35.1413 160.367 39.6465 162.879 45.8854 163.694C46.3912 163.759 46.8992 163.812 47.4092 163.852C47.3782 164.506 47.3666 165.163 47.3744 165.823C47.4474 171.872 49.2408 176.324 52.312 177.354C55.484 178.417 59.9117 175.773 63.74 170.779C64.0428 170.384 64.342 169.971 64.6375 169.54C65.1925 169.894 65.758 170.232 66.3342 170.554C71.6137 173.514 76.3718 174.179 78.7979 172.035C81.306 169.82 81.2263 164.665 78.8078 158.861C78.6227 158.418 78.4217 157.968 78.2049 157.512C78.5202 157.345 78.8278 157.177 79.1277 157.006C84.7874 153.774 88.0832 149.729 87.4135 146.41C86.7679 143.223 82.4524 140.889 76.339 140.076ZM60.3152 134.033C63.5365 129.847 66.9181 127.768 68.7766 128.391C70.7548 129.055 72.275 133.034 72.2511 138.659C72.2486 139.026 72.24 139.393 72.2252 139.76C69.787 139.701 67.3473 139.805 64.9226 140.071C63.164 138.388 61.2932 136.826 59.323 135.394C59.6413 134.932 59.9713 134.478 60.313 134.033L60.3152 134.033ZM50.6557 156.646C51.3207 157.473 52.005 158.284 52.7087 159.079C53.4257 159.891 54.1623 160.685 54.9187 161.46C53.2443 161.613 51.5632 161.68 49.882 161.661C50.0452 160.058 50.3047 158.376 50.6557 156.646ZM49.5836 151.333C48.6072 149.906 47.7373 148.485 46.9784 147.096C48.4211 146.453 49.9754 145.852 51.6116 145.305C51.2258 146.293 50.8639 147.29 50.5259 148.296C50.1879 149.302 49.8727 150.314 49.5803 151.333L49.5836 151.333ZM51.3218 153.747C51.7263 152.158 52.1901 150.585 52.7132 149.03C53.2358 147.475 53.8165 145.942 54.4556 144.43C56.0063 143.994 57.6081 143.605 59.239 143.276C60.8699 142.947 62.5069 142.682 64.1047 142.484C65.2698 143.629 66.3936 144.813 67.4761 146.037C68.5585 147.261 69.6045 148.522 70.6139 149.82C70.1986 151.417 69.7279 152.997 69.2017 154.56C68.6807 156.114 68.1106 157.65 67.4916 159.166C65.9424 159.593 64.328 159.981 62.674 160.315C61.0199 160.649 59.4138 160.919 57.8509 161.131C56.6681 159.982 55.53 158.789 54.4367 157.553C53.3433 156.317 52.3039 155.049 51.3184 153.748L51.3218 153.747ZM71.3869 155.294C71.7338 154.265 72.057 153.227 72.3564 152.182C73.3352 153.566 74.2418 154.999 75.0728 156.476C73.5161 157.171 71.9242 157.784 70.3034 158.313C70.6848 157.314 71.0459 156.308 71.3869 155.294ZM71.2788 146.956C70.6036 146.127 69.9111 145.314 69.2014 144.515C68.5067 143.726 67.7924 142.953 67.0588 142.195C68.7901 142.067 70.4672 142.024 72.0556 142.064C71.8789 143.706 71.6197 145.339 71.2788 146.956ZM58.062 137.33C59.4052 138.307 60.698 139.351 61.9355 140.459C59.8314 140.78 57.7457 141.201 55.6786 141.721C56.4337 140.157 57.2328 138.686 58.062 137.33ZM44.5688 133.346C46.133 131.964 50.3443 132.638 55.2098 135.463C55.5206 135.643 55.8359 135.835 56.1518 136.036C54.8824 138.12 53.753 140.286 52.771 142.52C50.4379 143.212 48.1524 144.056 45.9287 145.044C45.6854 144.532 45.4545 144.013 45.2361 143.489C43.2126 138.608 43.1 134.643 44.5688 133.346ZM47.5743 161.553C47.1079 161.517 46.6449 161.469 46.1852 161.409C43.4274 161.05 41.0642 160.333 39.3487 159.378C37.8126 158.522 36.9231 157.538 36.7403 156.632C36.3519 154.708 38.73 151.672 43.1864 149.039C43.7463 148.709 44.315 148.395 44.8925 148.099C46.0644 150.235 47.3766 152.293 48.8206 154.257C48.2453 156.659 47.829 159.097 47.5743 161.553ZM61.9068 169.378C60.2145 171.587 58.4135 173.274 56.7288 174.281C55.215 175.185 53.9204 175.463 53.0452 175.169C51.1816 174.544 49.7373 170.97 49.6791 165.797C49.6733 165.188 49.6836 164.575 49.7101 163.96C52.1637 163.99 54.6166 163.854 57.052 163.553C58.8387 165.238 60.7343 166.804 62.7266 168.242C62.463 168.631 62.1892 169.009 61.9068 169.378ZM63.9743 166.304C62.6693 165.365 61.3416 164.302 60.0212 163.139C61.0429 162.974 62.0791 162.785 63.1296 162.573C64.2081 162.356 65.2709 162.117 66.3133 161.858C65.6098 163.378 64.8292 164.862 63.9743 166.304ZM78.3397 166.676C78.3668 168.437 77.9612 169.698 77.2686 170.309C75.7949 171.611 71.9745 171.076 67.4607 168.544C66.9433 168.255 66.4203 167.939 65.8857 167.604C67.1312 165.505 68.2338 163.326 69.1861 161.08C71.5569 160.39 73.8773 159.537 76.1309 158.529C76.3268 158.942 76.5085 159.349 76.6758 159.75C77.7453 162.315 78.309 164.716 78.3397 166.676ZM77.9815 155.006C77.7119 155.16 77.4328 155.312 77.1488 155.463C75.9462 153.321 74.5989 151.264 73.1162 149.305C73.6897 146.961 74.1052 144.581 74.3598 142.182C74.933 142.23 75.4922 142.289 76.0337 142.362C81.2718 143.057 84.7633 144.948 85.15 146.864C85.5626 148.909 82.8705 152.214 77.9815 155.006Z" fill="white"/>
<path d="M61.8982 156.471C62.8373 156.284 63.7002 155.825 64.3775 155.149C65.0549 154.474 65.5163 153.614 65.7033 152.677C65.8903 151.741 65.7945 150.77 65.428 149.889C65.0616 149.008 64.4409 148.255 63.6447 147.726C62.8485 147.197 61.9124 146.916 60.9552 146.918C59.9979 146.92 59.0624 147.205 58.2672 147.737C57.4719 148.27 56.8527 149.025 56.488 149.908C56.1232 150.791 56.0292 151.762 56.218 152.697C56.3418 153.318 56.587 153.907 56.9395 154.432C57.292 154.958 57.745 155.408 58.2725 155.759C58.8 156.109 59.3917 156.353 60.0139 156.475C60.636 156.597 61.2763 156.596 61.8982 156.471Z" fill="white"/>
</svg>
