<svg width="84" height="34" viewBox="0 0 84 34" fill="none" xmlns="http://www.w3.org/2000/svg">
<path fill-rule="evenodd" clip-rule="evenodd" d="M84 17C84 26.3888 76.2572 34 66.706 34C60.2787 34 54.6704 30.5535 51.6892 25.4379C53.5749 23.5006 54.7332 20.8737 54.7332 17.9808C54.7332 14.7502 53.2887 11.8513 51 9.87414C53.7417 4.04465 59.7433 0 66.706 0C76.2572 0 84 7.61116 84 17Z" fill="black"/>
<path d="M67.0007 6.00067C60.9235 6.00067 56 10.8228 56 16.7659C56 21.5247 59.1517 25.5583 63.5197 26.9813C64.0718 27.0829 64.2711 26.7499 64.2711 26.4619C64.2711 26.2062 64.265 25.5301 64.2608 24.6325C61.1992 25.2811 60.5543 23.1853 60.5543 23.1853C60.0531 21.9446 59.3298 21.6115 59.3298 21.6115C58.3342 20.9461 59.4088 20.9602 59.4088 20.9602C60.5117 21.0336 61.0919 22.067 61.0919 22.067C62.0731 23.7141 63.6661 23.2377 64.2966 22.9605C64.3928 22.2669 64.6795 21.7898 64.9917 21.5241C62.5495 21.2543 59.9816 20.3291 59.9816 16.204C59.9816 15.0259 60.4078 14.0665 61.1126 13.3129C60.9909 13.0431 60.6182 11.9464 61.2095 10.4635C61.2095 10.4635 62.1301 10.1762 64.2347 11.5676C65.1312 11.329 66.0558 11.2066 66.9849 11.2036C67.9199 11.2097 68.8543 11.3294 69.735 11.5676C71.8272 10.1762 72.7472 10.4635 72.7472 10.4635C73.3378 11.9464 72.9651 13.0424 72.8579 13.3129C73.5557 14.0665 73.982 15.0266 73.982 16.204C73.982 20.3385 71.4106 21.2502 68.9657 21.5133C69.348 21.8356 69.7062 22.4983 69.7062 23.5042C69.7062 24.944 69.6924 26.104 69.6924 26.4545C69.6924 26.7344 69.8849 27.0708 70.4515 26.9625C74.8517 25.5543 78 21.5173 78 16.7652C78 10.8221 73.0765 6 66.9993 6L67.0007 6.00067Z" fill="#FFD600"/>
<path d="M11.5576 21.3828C11.083 21.9512 10.4121 22.3936 9.54492 22.71C8.67773 23.0205 7.7168 23.1758 6.66211 23.1758C5.55469 23.1758 4.58203 22.9355 3.74414 22.4551C2.91211 21.9688 2.26758 21.2656 1.81055 20.3457C1.35938 19.4258 1.12793 18.3447 1.11621 17.1025V16.2324C1.11621 14.9551 1.33008 13.8506 1.75781 12.9189C2.19141 11.9814 2.8125 11.2666 3.62109 10.7744C4.43555 10.2764 5.3877 10.0273 6.47754 10.0273C7.99512 10.0273 9.18164 10.3906 10.0371 11.1172C10.8926 11.8379 11.3994 12.8896 11.5576 14.2725H8.99121C8.87402 13.54 8.61328 13.0039 8.20898 12.6641C7.81055 12.3242 7.25977 12.1543 6.55664 12.1543C5.66016 12.1543 4.97754 12.4912 4.50879 13.165C4.04004 13.8389 3.80273 14.8408 3.79688 16.1709V16.9883C3.79688 18.3301 4.05176 19.3438 4.56152 20.0293C5.07129 20.7148 5.81836 21.0576 6.80273 21.0576C7.79297 21.0576 8.49902 20.8467 8.9209 20.4248V18.2188H6.52148V16.2764H11.5576V21.3828ZM16.2158 23H13.667V13.4902H16.2158V23ZM13.5176 11.0293C13.5176 10.6484 13.6436 10.335 13.8955 10.0889C14.1533 9.84277 14.502 9.71973 14.9414 9.71973C15.375 9.71973 15.7207 9.84277 15.9785 10.0889C16.2363 10.335 16.3652 10.6484 16.3652 11.0293C16.3652 11.416 16.2334 11.7324 15.9697 11.9785C15.7119 12.2246 15.3691 12.3477 14.9414 12.3477C14.5137 12.3477 14.168 12.2246 13.9043 11.9785C13.6465 11.7324 13.5176 11.416 13.5176 11.0293ZM21.3574 11.1523V13.4902H22.9834V15.3535H21.3574V20.0996C21.3574 20.4512 21.4248 20.7031 21.5596 20.8555C21.6943 21.0078 21.9521 21.084 22.333 21.084C22.6143 21.084 22.8633 21.0635 23.0801 21.0225V22.9473C22.582 23.0996 22.0693 23.1758 21.542 23.1758C19.7607 23.1758 18.8525 22.2764 18.8174 20.4775V15.3535H17.4287V13.4902H18.8174V11.1523H21.3574ZM26.877 14.5273C27.5508 13.7188 28.3975 13.3145 29.417 13.3145C31.4795 13.3145 32.5254 14.5127 32.5547 16.9092V23H30.0146V16.9795C30.0146 16.4346 29.8975 16.0332 29.6631 15.7754C29.4287 15.5117 29.0391 15.3799 28.4941 15.3799C27.75 15.3799 27.2109 15.667 26.877 16.2412V23H24.3369V9.5H26.877V14.5273ZM40.166 22.0332C39.5391 22.7949 38.6719 23.1758 37.5645 23.1758C36.5449 23.1758 35.7656 22.8828 35.2266 22.2969C34.6934 21.7109 34.4209 20.8525 34.4092 19.7217V13.4902H36.9492V19.6338C36.9492 20.624 37.4004 21.1191 38.3027 21.1191C39.1641 21.1191 39.7559 20.8203 40.0781 20.2227V13.4902H42.627V23H40.2363L40.166 22.0332ZM53.1123 18.333C53.1123 19.8564 52.7871 21.0459 52.1367 21.9014C51.4863 22.751 50.5781 23.1758 49.4121 23.1758C48.3809 23.1758 47.5576 22.7803 46.9424 21.9893L46.8281 23H44.543V9.5H47.083V14.3428C47.6689 13.6572 48.4395 13.3145 49.3945 13.3145C50.5547 13.3145 51.4629 13.7422 52.1191 14.5977C52.7812 15.4473 53.1123 16.6455 53.1123 18.1924V18.333ZM50.5723 18.1484C50.5723 17.1875 50.4199 16.4873 50.1152 16.0479C49.8105 15.6025 49.3564 15.3799 48.7529 15.3799C47.9443 15.3799 47.3877 15.7109 47.083 16.373V20.126C47.3936 20.7939 47.9561 21.1279 48.7705 21.1279C49.5908 21.1279 50.1299 20.7236 50.3877 19.915C50.5107 19.5283 50.5723 18.9395 50.5723 18.1484Z" fill="black"/>
</svg>
