<svg width="393" height="521" viewBox="0 0 393 521" fill="none" xmlns="http://www.w3.org/2000/svg">
<g filter="url(#filter0_dii)">
<path d="M372.177 20H165.424L20.9441 501H227.697L372.177 20Z" fill="#FFD600"/>
<path d="M182.125 215L186.32 239.68L199.047 215H208.188L202.258 249.125H195.367L197.055 239.398L200.383 224.211L187.305 249.125H182.594L178.023 223.344L175.82 240.148L174.25 249.125H167.383L173.312 215H182.125Z" fill="black"/>
<path d="M222.25 230.328L231.789 215H239.664L224.758 237.125L222.695 249.125H215.711L217.938 236.352L210.859 215.023L218.102 215L222.25 230.328Z" fill="black"/>
<path d="M154.023 295.211L162.25 271H169.258L156.578 305.125H149.664L147.859 282.391L138.93 305.125H132.016L130 271H136.703L137.383 295.094L146.57 271H152.406L154.023 295.211Z" fill="black"/>
<path d="M181.188 305.594C178.922 305.547 176.922 305.016 175.188 304C173.469 302.969 172.102 301.492 171.086 299.57C170.086 297.633 169.508 295.414 169.352 292.914C169.18 290.352 169.453 287.617 170.172 284.711C170.891 281.805 172.047 279.25 173.641 277.047C175.234 274.844 177.102 273.195 179.242 272.102C181.398 271.008 183.727 270.484 186.227 270.531C188.523 270.578 190.531 271.125 192.25 272.172C193.969 273.203 195.32 274.695 196.305 276.648C197.289 278.586 197.852 280.789 197.992 283.258C198.148 286.008 197.852 288.836 197.102 291.742C196.352 294.648 195.188 297.164 193.609 299.289C192.031 301.414 190.18 303.008 188.055 304.07C185.945 305.133 183.656 305.641 181.188 305.594ZM190.914 287.125L191.102 284.898C191.258 282.117 190.883 280.008 189.977 278.57C189.086 277.133 187.727 276.383 185.898 276.32C183.039 276.227 180.766 277.492 179.078 280.117C177.406 282.742 176.461 286.414 176.242 291.133C176.086 293.898 176.453 296.031 177.344 297.531C178.234 299.016 179.617 299.789 181.492 299.852C183.945 299.961 185.977 299.008 187.586 296.992C189.195 294.961 190.25 292.094 190.75 288.391L190.914 287.125Z" fill="black"/>
<path d="M214.492 292.633H208.914L206.734 305.125H199.867L205.797 271L217.094 271.023C220.875 271.023 223.781 271.914 225.812 273.695C227.859 275.477 228.766 277.953 228.531 281.125C228.203 285.812 225.703 289.07 221.031 290.898L225.836 304.75V305.125H218.523L214.492 292.633ZM209.898 286.938L215.008 286.984C216.82 286.953 218.312 286.469 219.484 285.531C220.672 284.578 221.383 283.289 221.617 281.664C221.836 280.148 221.594 278.961 220.891 278.102C220.188 277.242 219.07 276.781 217.539 276.719L211.68 276.695L209.898 286.938Z" fill="black"/>
<path d="M242.828 291.508L238.328 295.68L236.688 305.125H229.82L235.75 271H242.617L239.992 286.047L243.484 282.109L253.75 271H262.703L247.961 286.516L256.75 305.125H248.922L242.828 291.508Z" fill="black"/>
</g>
<defs>
<filter id="filter0_dii" x="0" y="0" width="392.177" height="521" filterUnits="userSpaceOnUse" color-interpolation-filters="sRGB">
<feFlood flood-opacity="0" result="BackgroundImageFix"/>
<feColorMatrix in="SourceAlpha" type="matrix" values="0 0 0 0 0 0 0 0 0 0 0 0 0 0 0 0 0 0 127 0"/>
<feOffset/>
<feGaussianBlur stdDeviation="10"/>
<feColorMatrix type="matrix" values="0 0 0 0 1 0 0 0 0 0.84 0 0 0 0 0 0 0 0 1 0"/>
<feBlend mode="normal" in2="BackgroundImageFix" result="effect1_dropShadow"/>
<feBlend mode="normal" in="SourceGraphic" in2="effect1_dropShadow" result="shape"/>
<feColorMatrix in="SourceAlpha" type="matrix" values="0 0 0 0 0 0 0 0 0 0 0 0 0 0 0 0 0 0 127 0" result="hardAlpha"/>
<feOffset/>
<feGaussianBlur stdDeviation="2"/>
<feComposite in2="hardAlpha" operator="arithmetic" k2="-1" k3="1"/>
<feColorMatrix type="matrix" values="0 0 0 0 0.354167 0 0 0 0 0.2975 0 0 0 0 0 0 0 0 1 0"/>
<feBlend mode="normal" in2="shape" result="effect2_innerShadow"/>
<feColorMatrix in="SourceAlpha" type="matrix" values="0 0 0 0 0 0 0 0 0 0 0 0 0 0 0 0 0 0 127 0" result="hardAlpha"/>
<feOffset/>
<feGaussianBlur stdDeviation="2"/>
<feComposite in2="hardAlpha" operator="arithmetic" k2="-1" k3="1"/>
<feColorMatrix type="matrix" values="0 0 0 0 0.35 0 0 0 0 0.294 0 0 0 0 0 0 0 0 1 0"/>
<feBlend mode="normal" in2="effect2_innerShadow" result="effect3_innerShadow"/>
</filter>
</defs>
</svg>
