<svg width="393" height="521" viewBox="0 0 393 521" fill="none" xmlns="http://www.w3.org/2000/svg">
<g filter="url(#filter0_dii)">
<path d="M372.177 20H165.424L20.9441 501H227.697L372.177 20Z" fill="#FFD600"/>
<path d="M130.841 291.5C130.608 293.584 129.905 295.433 128.731 297.048C127.557 298.649 126.028 299.885 124.144 300.754C122.259 301.61 120.225 302.017 118.041 301.976C116.074 301.934 114.361 301.479 112.9 300.609C111.439 299.726 110.285 298.456 109.439 296.8C108.606 295.13 108.135 293.211 108.026 291.044C107.93 289.346 108.101 287.235 108.538 284.709C108.988 282.183 109.78 279.94 110.913 277.98C112.06 276.02 113.419 274.467 114.989 273.322C117.201 271.72 119.727 270.948 122.567 271.003C125.652 271.058 128.096 272.024 129.898 273.901C131.714 275.765 132.711 278.36 132.889 281.686L126.908 281.665C126.908 279.761 126.533 278.366 125.782 277.483C125.031 276.6 123.864 276.13 122.28 276.075C120.232 276.006 118.546 276.745 117.221 278.291C115.911 279.836 115.03 282.093 114.579 285.061C114.142 287.945 113.951 290.106 114.006 291.541C114.074 293.363 114.477 294.709 115.214 295.578C115.952 296.434 116.982 296.883 118.307 296.924C120.136 296.993 121.597 296.558 122.689 295.62C123.795 294.667 124.526 293.308 124.881 291.541L130.841 291.5Z" fill="black"/>
<path d="M140.22 296.572H152.877L152.017 301.562H133.36L138.541 271.417H144.542L140.22 296.572Z" fill="black"/>
<path d="M161.991 301.562H155.99L161.151 271.417H167.152L161.991 301.562Z" fill="black"/>
<path d="M187.366 288.498H175.938L174.545 296.572H187.98L187.12 301.562H167.684L172.866 271.417H192.26L191.38 276.448H178.006L176.757 283.632H188.226L187.366 288.498Z" fill="black"/>
<path d="M214.358 301.562H208.542L200.248 281.458L196.787 301.562H190.786L195.967 271.417H201.763L210.078 291.562L213.539 271.417H219.519L214.358 301.562Z" fill="black"/>
<path d="M245.242 276.448H236.395L232.094 301.562H226.094L230.394 276.448H221.649L222.53 271.417H246.123L245.242 276.448Z" fill="black"/>
<path d="M260.603 293.508C260.889 291.865 260.091 290.609 258.206 289.74L254.254 288.146C249.666 286.075 247.488 283.225 247.721 279.595C247.816 277.911 248.362 276.42 249.359 275.123C250.356 273.825 251.755 272.811 253.557 272.079C255.36 271.334 257.305 270.975 259.394 271.003C262.275 271.058 264.603 271.928 266.378 273.611C268.153 275.282 269.027 277.524 268.999 280.34H263.019C263.087 278.974 262.787 277.911 262.118 277.152C261.463 276.393 260.439 275.999 259.046 275.972C257.681 275.944 256.493 276.262 255.482 276.924C254.472 277.573 253.871 278.47 253.68 279.616C253.421 281.12 254.418 282.314 256.67 283.197L259.374 284.233L260.93 284.957C264.958 286.972 266.842 289.802 266.583 293.446C266.46 295.226 265.893 296.765 264.883 298.063C263.886 299.346 262.521 300.333 260.787 301.023C259.067 301.714 257.169 302.038 255.093 301.996C252.977 301.955 251.093 301.506 249.441 300.651C247.789 299.795 246.533 298.587 245.673 297.028C244.867 295.578 244.492 293.922 244.546 292.059L250.547 292.079C250.356 295.351 251.946 297.014 255.319 297.069C256.78 297.069 257.981 296.745 258.923 296.096C259.865 295.447 260.425 294.584 260.603 293.508Z" fill="black"/>
<path d="M180.532 217L184.562 240.694L196.788 217H205.569L199.872 249.761H193.253L194.874 240.423L198.071 225.843L185.508 249.761H180.982L176.592 225.01L174.475 241.144L172.967 249.761H166.37L172.066 217H180.532Z" fill="black"/>
<path d="M219.078 231.716L228.242 217H235.807L221.487 238.241L219.506 249.761H212.796L214.935 237.498L208.136 217.023L215.093 217L219.078 231.716Z" fill="black"/>
</g>
<defs>
<filter id="filter0_dii" x="0" y="0" width="392.177" height="521" filterUnits="userSpaceOnUse" color-interpolation-filters="sRGB">
<feFlood flood-opacity="0" result="BackgroundImageFix"/>
<feColorMatrix in="SourceAlpha" type="matrix" values="0 0 0 0 0 0 0 0 0 0 0 0 0 0 0 0 0 0 127 0"/>
<feOffset/>
<feGaussianBlur stdDeviation="10"/>
<feColorMatrix type="matrix" values="0 0 0 0 1 0 0 0 0 0.84 0 0 0 0 0 0 0 0 1 0"/>
<feBlend mode="normal" in2="BackgroundImageFix" result="effect1_dropShadow"/>
<feBlend mode="normal" in="SourceGraphic" in2="effect1_dropShadow" result="shape"/>
<feColorMatrix in="SourceAlpha" type="matrix" values="0 0 0 0 0 0 0 0 0 0 0 0 0 0 0 0 0 0 127 0" result="hardAlpha"/>
<feOffset/>
<feGaussianBlur stdDeviation="2"/>
<feComposite in2="hardAlpha" operator="arithmetic" k2="-1" k3="1"/>
<feColorMatrix type="matrix" values="0 0 0 0 0.354167 0 0 0 0 0.2975 0 0 0 0 0 0 0 0 1 0"/>
<feBlend mode="normal" in2="shape" result="effect2_innerShadow"/>
<feColorMatrix in="SourceAlpha" type="matrix" values="0 0 0 0 0 0 0 0 0 0 0 0 0 0 0 0 0 0 127 0" result="hardAlpha"/>
<feOffset/>
<feGaussianBlur stdDeviation="2"/>
<feComposite in2="hardAlpha" operator="arithmetic" k2="-1" k3="1"/>
<feColorMatrix type="matrix" values="0 0 0 0 0.35 0 0 0 0 0.294 0 0 0 0 0 0 0 0 1 0"/>
<feBlend mode="normal" in2="effect2_innerShadow" result="effect3_innerShadow"/>
</filter>
</defs>
</svg>
