<svg width="393" height="521" viewBox="0 0 393 521" fill="none" xmlns="http://www.w3.org/2000/svg">
<g filter="url(#filter0_dii)">
<path d="M372.177 20H165.424L20.9441 501H227.697L372.177 20Z" fill="#FFD600"/>
<path d="M149.992 242.565H138.086L134.57 249.597H127L145.234 215.472H151.586L158.078 249.597H151.07L149.992 242.565ZM140.898 236.87H149.125L147.203 224.167L140.898 236.87Z" fill="black"/>
<path d="M161.523 249.597L167.453 215.472L178.094 215.495C182.047 215.511 185.016 216.315 187 217.909C188.984 219.503 189.883 221.745 189.695 224.636C189.477 228.089 187.484 230.612 183.719 232.206C185.078 232.675 186.133 233.558 186.883 234.854C187.633 236.136 187.953 237.651 187.844 239.401C187.625 242.62 186.359 245.128 184.047 246.925C181.75 248.706 178.609 249.597 174.625 249.597H161.523ZM170.992 234.737L169.375 243.948L174.789 243.972C176.477 243.972 177.891 243.558 179.031 242.729C180.172 241.886 180.852 240.753 181.07 239.331C181.289 237.925 181.094 236.831 180.484 236.05C179.891 235.253 178.883 234.823 177.461 234.761L170.992 234.737ZM171.836 229.769L176.5 229.815C178.234 229.784 179.648 229.378 180.742 228.597C181.852 227.815 182.516 226.729 182.734 225.339C183.125 222.589 181.68 221.206 178.398 221.19L173.336 221.167L171.836 229.769Z" fill="black"/>
<path d="M205.188 250.065C202.922 250.019 200.922 249.487 199.188 248.472C197.469 247.44 196.102 245.964 195.086 244.042C194.086 242.104 193.508 239.886 193.352 237.386C193.18 234.823 193.453 232.089 194.172 229.183C194.891 226.276 196.047 223.722 197.641 221.519C199.234 219.315 201.102 217.667 203.242 216.573C205.398 215.479 207.727 214.956 210.227 215.003C212.523 215.05 214.531 215.597 216.25 216.644C217.969 217.675 219.32 219.167 220.305 221.12C221.289 223.058 221.852 225.261 221.992 227.729C222.148 230.479 221.852 233.308 221.102 236.214C220.352 239.12 219.188 241.636 217.609 243.761C216.031 245.886 214.18 247.479 212.055 248.542C209.945 249.604 207.656 250.112 205.188 250.065ZM214.914 231.597L215.102 229.37C215.258 226.589 214.883 224.479 213.977 223.042C213.086 221.604 211.727 220.854 209.898 220.792C207.039 220.698 204.766 221.964 203.078 224.589C201.406 227.214 200.461 230.886 200.242 235.604C200.086 238.37 200.453 240.503 201.344 242.003C202.234 243.487 203.617 244.261 205.492 244.323C207.945 244.433 209.977 243.479 211.586 241.464C213.195 239.433 214.25 236.565 214.75 232.862L214.914 231.597Z" fill="black"/>
<path d="M254.992 215.472L251.148 237.972C250.617 241.737 249.055 244.714 246.461 246.901C243.867 249.089 240.648 250.151 236.805 250.089C234.398 250.042 232.305 249.519 230.523 248.519C228.758 247.503 227.453 246.081 226.609 244.253C225.766 242.409 225.477 240.323 225.742 237.995L229.562 215.472H236.43L232.609 238.019C232.5 238.894 232.492 239.714 232.586 240.479C232.898 243.011 234.406 244.323 237.109 244.417C239.047 244.479 240.633 243.948 241.867 242.823C243.102 241.698 243.898 240.089 244.258 237.995L248.102 215.472H254.992Z" fill="black"/>
<path d="M284.641 221.167H274.516L269.594 249.597H262.727L267.648 221.167H257.641L258.648 215.472H285.648L284.641 221.167Z" fill="black"/>
<path d="M175.891 270.472L180.086 295.151L192.812 270.472H201.953L196.023 304.597H189.133L190.82 294.87L194.148 279.683L181.07 304.597H176.359L171.789 278.815L169.586 295.62L168.016 304.597H161.148L167.078 270.472H175.891Z" fill="black"/>
<path d="M224.688 289.808H211.609L210.016 298.948H225.391L224.406 304.597H202.164L208.094 270.472H230.289L229.281 276.167H213.977L212.547 284.3H225.672L224.688 289.808Z" fill="black"/>
</g>
<defs>
<filter id="filter0_dii" x="0" y="0" width="392.177" height="521" filterUnits="userSpaceOnUse" color-interpolation-filters="sRGB">
<feFlood flood-opacity="0" result="BackgroundImageFix"/>
<feColorMatrix in="SourceAlpha" type="matrix" values="0 0 0 0 0 0 0 0 0 0 0 0 0 0 0 0 0 0 127 0"/>
<feOffset/>
<feGaussianBlur stdDeviation="10"/>
<feColorMatrix type="matrix" values="0 0 0 0 1 0 0 0 0 0.84 0 0 0 0 0 0 0 0 1 0"/>
<feBlend mode="normal" in2="BackgroundImageFix" result="effect1_dropShadow"/>
<feBlend mode="normal" in="SourceGraphic" in2="effect1_dropShadow" result="shape"/>
<feColorMatrix in="SourceAlpha" type="matrix" values="0 0 0 0 0 0 0 0 0 0 0 0 0 0 0 0 0 0 127 0" result="hardAlpha"/>
<feOffset/>
<feGaussianBlur stdDeviation="2"/>
<feComposite in2="hardAlpha" operator="arithmetic" k2="-1" k3="1"/>
<feColorMatrix type="matrix" values="0 0 0 0 0.354167 0 0 0 0 0.2975 0 0 0 0 0 0 0 0 1 0"/>
<feBlend mode="normal" in2="shape" result="effect2_innerShadow"/>
<feColorMatrix in="SourceAlpha" type="matrix" values="0 0 0 0 0 0 0 0 0 0 0 0 0 0 0 0 0 0 127 0" result="hardAlpha"/>
<feOffset/>
<feGaussianBlur stdDeviation="2"/>
<feComposite in2="hardAlpha" operator="arithmetic" k2="-1" k3="1"/>
<feColorMatrix type="matrix" values="0 0 0 0 0.35 0 0 0 0 0.294 0 0 0 0 0 0 0 0 1 0"/>
<feBlend mode="normal" in2="effect2_innerShadow" result="effect3_innerShadow"/>
</filter>
</defs>
</svg>
