<svg width="114" height="34" viewBox="0 0 114 34" fill="none" xmlns="http://www.w3.org/2000/svg">
<path d="M93.1574 17C93.1574 18.9275 94.7438 20.487 96.7046 20.487C98.6655 20.487 100.252 18.9275 100.252 17C100.252 15.0725 98.6655 13.513 96.7046 13.513C94.7438 13.513 93.1574 15.0725 93.1574 17Z" fill="black"/>
<path fill-rule="evenodd" clip-rule="evenodd" d="M101.008 8.48235C99.8848 8.43527 99.5455 8.42154 96.7046 8.42154L96.6608 8.39146C93.8885 8.39146 93.5024 8.40513 92.4394 8.44275L92.3552 8.44574C91.3156 8.49673 90.7582 8.66673 90.3837 8.80992C89.8782 8.99431 89.531 9.22969 89.1605 9.59389C88.7867 9.96199 88.5479 10.302 88.3643 10.7996C88.2153 11.1644 88.045 11.7254 87.9898 12.7474L87.9831 12.9411C87.9498 13.9078 87.9339 14.3667 87.9339 16.9837C87.9339 19.6068 87.9499 20.062 87.9833 21.0209L87.9898 21.2068C88.045 22.2288 88.2153 22.7911 88.3643 23.1546C88.5479 23.6418 88.786 23.9922 89.1605 24.3603C89.5316 24.7252 89.8782 24.9462 90.3837 25.1443C90.7582 25.2875 91.3295 25.4575 92.3652 25.5124C93.4953 25.5634 93.8272 25.5772 96.6754 25.5772C99.5236 25.5772 99.8562 25.5634 100.985 25.5163C102.025 25.4686 102.597 25.2986 102.966 25.1548C103.428 24.9866 103.847 24.7205 104.193 24.3754C104.564 24.004 104.789 23.6607 104.99 23.1697C105.136 22.8016 105.309 22.2471 105.365 21.2291C105.417 20.1254 105.431 19.7913 105.431 16.9993C105.431 14.2074 105.417 13.8733 105.369 12.7696C105.32 11.7516 105.147 11.1971 105.001 10.829C104.832 10.3748 104.561 9.96385 104.208 9.62658C103.864 9.27929 103.445 9.01191 102.982 8.84392C102.607 8.70008 102.043 8.53008 101.008 8.48235ZM94.6138 12.0382C95.2767 11.7684 95.9872 11.6297 96.7046 11.63C97.4221 11.6297 98.1326 11.7684 98.7955 12.0382C99.4584 12.308 100.061 12.7035 100.568 13.2022C101.075 13.7009 101.478 14.293 101.752 14.9447C102.027 15.5963 102.168 16.2947 102.168 17C102.168 17.7053 102.027 18.4037 101.752 19.0553C101.478 19.707 101.075 20.2991 100.568 20.7978C100.061 21.2965 99.4584 21.692 98.7955 21.9618C98.1326 22.2316 97.4221 22.3703 96.7046 22.37C95.9872 22.3703 95.2767 22.2316 94.6138 21.9618C93.9509 21.692 93.3486 21.2965 92.8412 20.7978C92.3339 20.2991 91.9315 19.707 91.657 19.0553C91.3826 18.4037 91.2415 17.7053 91.2417 17C91.2415 16.2947 91.3826 15.5963 91.657 14.9447C91.9315 14.293 92.3339 13.7009 92.8412 13.2022C93.3486 12.7035 93.9509 12.308 94.6138 12.0382ZM103.29 12.3037C103.53 12.0682 103.664 11.7487 103.665 11.4155C103.665 10.7244 103.089 10.1621 102.386 10.1621C102.218 10.1621 102.052 10.1945 101.897 10.2576C101.742 10.3206 101.602 10.4131 101.483 10.5296C101.365 10.6461 101.271 10.7844 101.206 10.9366C101.142 11.0889 101.109 11.252 101.109 11.4168C101.109 11.5816 101.142 11.7447 101.206 11.897C101.271 12.0492 101.365 12.1875 101.483 12.304C101.602 12.4206 101.742 12.513 101.897 12.576C102.052 12.6391 102.218 12.6715 102.386 12.6715C102.725 12.6715 103.05 12.5392 103.29 12.3037Z" fill="black"/>
<path fill-rule="evenodd" clip-rule="evenodd" d="M114 17C114 26.3888 106.257 34 96.706 34C90.2787 34 84.6704 30.5535 81.6892 25.4379C83.5749 23.5006 84.7332 20.8737 84.7332 17.9808C84.7332 14.7502 83.2887 11.8513 81 9.87414C83.7417 4.04466 89.7433 0 96.706 0C106.257 0 114 7.61116 114 17ZM92.3193 6.59927C93.4514 6.55219 93.8119 6.53846 96.7046 6.53846C99.5974 6.53846 99.9573 6.54893 101.09 6.59927C102.223 6.65419 102.996 6.82746 103.674 7.08638C104.386 7.34739 105.029 7.76029 105.559 8.29534C106.101 8.81754 106.52 9.44969 106.788 10.1477C107.048 10.8107 107.228 11.5737 107.284 12.6879C107.332 13.8007 107.346 14.1551 107.346 16.9987C107.346 19.8423 107.335 20.196 107.284 21.3095C107.228 22.4237 107.048 23.1828 106.788 23.8497C106.523 24.549 106.103 25.1816 105.559 25.702C105.027 26.2349 104.384 26.6475 103.674 26.911C102.996 27.166 102.223 27.3432 101.09 27.3981C99.9579 27.4452 99.5974 27.4589 96.7046 27.4589C93.8119 27.4589 93.452 27.4485 92.3193 27.3981C91.1859 27.3432 90.4136 27.1667 89.7352 26.911C89.0242 26.6492 88.3808 26.2364 87.8508 25.702C87.3087 25.1798 86.889 24.5477 86.6209 23.8497C86.3575 23.1828 86.1813 22.4237 86.1254 21.3095C86.0775 20.1966 86.0635 19.8423 86.0635 16.9987C86.0635 14.1551 86.0742 13.8014 86.1254 12.6879C86.1813 11.5705 86.3575 10.8146 86.6209 10.1477C86.8872 9.44881 87.3072 8.81633 87.8508 8.29534C88.382 7.76247 89.0251 7.3499 89.7352 7.08638C90.4136 6.82746 91.1825 6.65419 92.3193 6.59927Z" fill="black"/>
<path d="M4.35742 22H1.7207V9.20312H4.35742V22ZM8.98047 12.4902L9.05957 13.5889C9.73926 12.7393 10.6504 12.3145 11.793 12.3145C12.8008 12.3145 13.5508 12.6104 14.043 13.2021C14.5352 13.7939 14.7871 14.6787 14.7988 15.8564V22H12.2588V15.918C12.2588 15.3789 12.1416 14.9893 11.9072 14.749C11.6729 14.5029 11.2832 14.3799 10.7383 14.3799C10.0234 14.3799 9.4873 14.6846 9.12988 15.2939V22H6.58984V12.4902H8.98047ZM21.8828 19.3721C21.8828 19.0615 21.7275 18.8184 21.417 18.6426C21.1123 18.4609 20.6201 18.2998 19.9404 18.1592C17.6787 17.6846 16.5479 16.7236 16.5479 15.2764C16.5479 14.4326 16.8965 13.7295 17.5938 13.167C18.2969 12.5986 19.2139 12.3145 20.3447 12.3145C21.5518 12.3145 22.5156 12.5986 23.2363 13.167C23.9629 13.7354 24.3262 14.4736 24.3262 15.3818H21.7861C21.7861 15.0186 21.6689 14.7197 21.4346 14.4854C21.2002 14.2451 20.834 14.125 20.3359 14.125C19.9082 14.125 19.5771 14.2217 19.3428 14.415C19.1084 14.6084 18.9912 14.8545 18.9912 15.1533C18.9912 15.4346 19.123 15.6631 19.3867 15.8389C19.6562 16.0088 20.1074 16.1582 20.7402 16.2871C21.373 16.4102 21.9062 16.5508 22.3398 16.709C23.6816 17.2012 24.3525 18.0537 24.3525 19.2666C24.3525 20.1338 23.9805 20.8369 23.2363 21.376C22.4922 21.9092 21.5312 22.1758 20.3535 22.1758C19.5566 22.1758 18.8477 22.0352 18.2266 21.7539C17.6113 21.4668 17.1279 21.0771 16.7764 20.585C16.4248 20.0869 16.249 19.5508 16.249 18.9766H18.6572C18.6807 19.4277 18.8477 19.7734 19.1582 20.0137C19.4688 20.2539 19.8848 20.374 20.4062 20.374C20.8926 20.374 21.2588 20.2832 21.5049 20.1016C21.7568 19.9141 21.8828 19.6709 21.8828 19.3721ZM29.0371 10.1523V12.4902H30.6631V14.3535H29.0371V19.0996C29.0371 19.4512 29.1045 19.7031 29.2393 19.8555C29.374 20.0078 29.6318 20.084 30.0127 20.084C30.2939 20.084 30.543 20.0635 30.7598 20.0225V21.9473C30.2617 22.0996 29.749 22.1758 29.2217 22.1758C27.4404 22.1758 26.5322 21.2764 26.4971 19.4775V14.3535H25.1084V12.4902H26.4971V10.1523H29.0371ZM37.5889 22C37.4717 21.7715 37.3867 21.4873 37.334 21.1475C36.7188 21.833 35.9189 22.1758 34.9346 22.1758C34.0029 22.1758 33.2295 21.9062 32.6143 21.3672C32.0049 20.8281 31.7002 20.1484 31.7002 19.3281C31.7002 18.3203 32.0723 17.5469 32.8164 17.0078C33.5664 16.4688 34.6475 16.1963 36.0596 16.1904H37.2285V15.6455C37.2285 15.2061 37.1143 14.8545 36.8857 14.5908C36.6631 14.3271 36.3086 14.1953 35.8223 14.1953C35.3945 14.1953 35.0576 14.2979 34.8115 14.5029C34.5713 14.708 34.4512 14.9893 34.4512 15.3467H31.9111C31.9111 14.7959 32.0811 14.2861 32.4209 13.8174C32.7607 13.3486 33.2412 12.9824 33.8623 12.7188C34.4834 12.4492 35.1807 12.3145 35.9541 12.3145C37.126 12.3145 38.0547 12.6104 38.7402 13.2021C39.4316 13.7881 39.7773 14.6143 39.7773 15.6807V19.8027C39.7832 20.7051 39.9092 21.3877 40.1553 21.8506V22H37.5889ZM35.4883 20.2334C35.8633 20.2334 36.209 20.1514 36.5254 19.9873C36.8418 19.8174 37.0762 19.5918 37.2285 19.3105V17.6758H36.2793C35.0078 17.6758 34.3311 18.1152 34.249 18.9941L34.2402 19.1436C34.2402 19.46 34.3516 19.7207 34.5742 19.9258C34.7969 20.1309 35.1016 20.2334 35.4883 20.2334ZM41.3594 17.1748C41.3594 15.7158 41.7051 14.541 42.3965 13.6504C43.0938 12.7598 44.0312 12.3145 45.209 12.3145C46.252 12.3145 47.0635 12.6719 47.6436 13.3867L47.749 12.4902H50.0518V21.6836C50.0518 22.5156 49.8613 23.2393 49.4805 23.8545C49.1055 24.4697 48.5752 24.9385 47.8896 25.2607C47.2041 25.583 46.4014 25.7441 45.4814 25.7441C44.7842 25.7441 44.1045 25.6035 43.4424 25.3223C42.7803 25.0469 42.2793 24.6895 41.9395 24.25L43.0645 22.7031C43.6973 23.4121 44.4648 23.7666 45.3672 23.7666C46.041 23.7666 46.5654 23.585 46.9404 23.2217C47.3154 22.8643 47.5029 22.3545 47.5029 21.6924V21.1826C46.917 21.8447 46.1465 22.1758 45.1914 22.1758C44.0488 22.1758 43.123 21.7305 42.4141 20.8398C41.7109 19.9434 41.3594 18.7568 41.3594 17.2803V17.1748ZM43.8994 17.3594C43.8994 18.2207 44.0723 18.8975 44.418 19.3896C44.7637 19.876 45.2383 20.1191 45.8418 20.1191C46.6152 20.1191 47.1689 19.8291 47.5029 19.249V15.25C47.1631 14.6699 46.6152 14.3799 45.8594 14.3799C45.25 14.3799 44.7695 14.6289 44.418 15.127C44.0723 15.625 43.8994 16.3691 43.8994 17.3594ZM57.3555 14.8721C57.0098 14.8252 56.7051 14.8018 56.4414 14.8018C55.4805 14.8018 54.8506 15.127 54.5518 15.7773V22H52.0117V12.4902H54.4111L54.4814 13.624C54.9912 12.751 55.6973 12.3145 56.5996 12.3145C56.8809 12.3145 57.1445 12.3525 57.3906 12.4287L57.3555 14.8721ZM63.833 22C63.7158 21.7715 63.6309 21.4873 63.5781 21.1475C62.9629 21.833 62.1631 22.1758 61.1787 22.1758C60.2471 22.1758 59.4736 21.9062 58.8584 21.3672C58.249 20.8281 57.9443 20.1484 57.9443 19.3281C57.9443 18.3203 58.3164 17.5469 59.0605 17.0078C59.8105 16.4688 60.8916 16.1963 62.3037 16.1904H63.4727V15.6455C63.4727 15.2061 63.3584 14.8545 63.1299 14.5908C62.9072 14.3271 62.5527 14.1953 62.0664 14.1953C61.6387 14.1953 61.3018 14.2979 61.0557 14.5029C60.8154 14.708 60.6953 14.9893 60.6953 15.3467H58.1553C58.1553 14.7959 58.3252 14.2861 58.665 13.8174C59.0049 13.3486 59.4854 12.9824 60.1064 12.7188C60.7275 12.4492 61.4248 12.3145 62.1982 12.3145C63.3701 12.3145 64.2988 12.6104 64.9844 13.2021C65.6758 13.7881 66.0215 14.6143 66.0215 15.6807V19.8027C66.0273 20.7051 66.1533 21.3877 66.3994 21.8506V22H63.833ZM61.7324 20.2334C62.1074 20.2334 62.4531 20.1514 62.7695 19.9873C63.0859 19.8174 63.3203 19.5918 63.4727 19.3105V17.6758H62.5234C61.252 17.6758 60.5752 18.1152 60.4932 18.9941L60.4844 19.1436C60.4844 19.46 60.5957 19.7207 60.8184 19.9258C61.041 20.1309 61.3457 20.2334 61.7324 20.2334ZM70.3545 12.4902L70.4336 13.5537C71.1074 12.7275 72.0186 12.3145 73.167 12.3145C74.3916 12.3145 75.2324 12.7979 75.6895 13.7646C76.3574 12.7979 77.3096 12.3145 78.5459 12.3145C79.5771 12.3145 80.3447 12.6162 80.8486 13.2197C81.3525 13.8174 81.6045 14.7197 81.6045 15.9268V22H79.0557V15.9355C79.0557 15.3965 78.9502 15.0039 78.7393 14.7578C78.5283 14.5059 78.1562 14.3799 77.623 14.3799C76.8613 14.3799 76.334 14.7432 76.041 15.4697L76.0498 22H73.5098V15.9443C73.5098 15.3936 73.4014 14.9951 73.1846 14.749C72.9678 14.5029 72.5986 14.3799 72.0771 14.3799C71.3564 14.3799 70.835 14.6787 70.5127 15.2764V22H67.9727V12.4902H70.3545Z" fill="black"/>
</svg>
