<svg width="100" height="34" viewBox="0 0 100 34" fill="none" xmlns="http://www.w3.org/2000/svg">
<path fill-rule="evenodd" clip-rule="evenodd" d="M82.706 34C92.2572 34 100 26.3889 100 17C100 7.61115 92.2572 0 82.706 0C75.7433 0 69.7417 4.04465 67 9.87415C69.2887 11.8513 70.7332 14.7502 70.7332 17.9808C70.7332 20.8737 69.5749 23.5006 67.6892 25.4379C70.6703 30.5535 76.2787 34 82.706 34ZM72.3638 28H76.925V13.3119H72.3638V28ZM72 8.64157C72 10.0999 73.1833 11.3083 74.6417 11.3083C76.1 11.3083 77.2833 10.0999 77.2833 8.64157C77.2833 7.94098 77.005 7.2691 76.5096 6.77371C76.0142 6.27832 75.3423 6 74.6417 6C73.941 6 73.2691 6.27832 72.7737 6.77371C72.2783 7.2691 72 7.94098 72 8.64157ZM89.4451 20.85V28H94V19.9315C94 15.9833 93.1514 12.9434 88.5352 12.9434C86.3162 12.9434 84.8288 14.1612 84.2198 15.3154H84.1562V13.3119H79.782V28H84.3385V20.7274C84.3385 18.8119 84.7023 16.9607 87.0737 16.9607C89.4105 16.9607 89.4451 19.1458 89.4451 20.85Z" fill="black"/>
<path d="M3.87012 20.8818H9.46875V23H1.2334V10.2031H3.87012V20.8818ZM13.5029 23H10.9541V13.4902H13.5029V23ZM10.8047 11.0293C10.8047 10.6484 10.9307 10.335 11.1826 10.0889C11.4404 9.84277 11.7891 9.71973 12.2285 9.71973C12.6621 9.71973 13.0078 9.84277 13.2656 10.0889C13.5234 10.335 13.6523 10.6484 13.6523 11.0293C13.6523 11.416 13.5205 11.7324 13.2568 11.9785C12.999 12.2246 12.6562 12.3477 12.2285 12.3477C11.8008 12.3477 11.4551 12.2246 11.1914 11.9785C10.9336 11.7324 10.8047 11.416 10.8047 11.0293ZM17.9414 13.4902L18.0205 14.5889C18.7002 13.7393 19.6113 13.3145 20.7539 13.3145C21.7617 13.3145 22.5117 13.6104 23.0039 14.2021C23.4961 14.7939 23.748 15.6787 23.7598 16.8564V23H21.2197V16.918C21.2197 16.3789 21.1025 15.9893 20.8682 15.749C20.6338 15.5029 20.2441 15.3799 19.6992 15.3799C18.9844 15.3799 18.4482 15.6846 18.0908 16.2939V23H15.5508V13.4902H17.9414ZM29.1475 19.1855L28.2334 20.0996V23H25.6934V9.5H28.2334V16.9795L28.7256 16.3467L31.1602 13.4902H34.21L30.7734 17.4541L34.5088 23H31.5908L29.1475 19.1855ZM39.5098 23.1758C38.1152 23.1758 36.9785 22.748 36.0996 21.8926C35.2266 21.0371 34.79 19.8975 34.79 18.4736V18.2275C34.79 17.2725 34.9746 16.4199 35.3438 15.6699C35.7129 14.9141 36.2344 14.334 36.9082 13.9297C37.5879 13.5195 38.3613 13.3145 39.2285 13.3145C40.5293 13.3145 41.5518 13.7246 42.2959 14.5449C43.0459 15.3652 43.4209 16.5283 43.4209 18.0342V19.0713H37.3652C37.4473 19.6924 37.6934 20.1904 38.1035 20.5654C38.5195 20.9404 39.0439 21.1279 39.6768 21.1279C40.6553 21.1279 41.4199 20.7734 41.9707 20.0645L43.2188 21.4619C42.8379 22.001 42.3223 22.4229 41.6719 22.7275C41.0215 23.0264 40.3008 23.1758 39.5098 23.1758ZM39.2197 15.3711C38.7158 15.3711 38.3057 15.541 37.9893 15.8809C37.6787 16.2207 37.4795 16.707 37.3916 17.3398H40.9248V17.1377C40.9131 16.5752 40.7607 16.1416 40.4678 15.8369C40.1748 15.5264 39.7588 15.3711 39.2197 15.3711ZM44.4756 18.1748C44.4756 16.6924 44.8066 15.5117 45.4688 14.6328C46.1367 13.7539 47.0479 13.3145 48.2021 13.3145C49.1279 13.3145 49.8926 13.6602 50.4961 14.3516V9.5H53.0449V23H50.751L50.6279 21.9893C49.9951 22.7803 49.1807 23.1758 48.1846 23.1758C47.0654 23.1758 46.166 22.7363 45.4863 21.8574C44.8125 20.9727 44.4756 19.7451 44.4756 18.1748ZM47.0156 18.3594C47.0156 19.25 47.1709 19.9326 47.4814 20.4072C47.792 20.8818 48.2432 21.1191 48.835 21.1191C49.6201 21.1191 50.1738 20.7881 50.4961 20.126V16.373C50.1797 15.7109 49.6318 15.3799 48.8525 15.3799C47.6279 15.3799 47.0156 16.373 47.0156 18.3594ZM57.6943 23H55.1455V13.4902H57.6943V23ZM54.9961 11.0293C54.9961 10.6484 55.1221 10.335 55.374 10.0889C55.6318 9.84277 55.9805 9.71973 56.4199 9.71973C56.8535 9.71973 57.1992 9.84277 57.457 10.0889C57.7148 10.335 57.8438 10.6484 57.8438 11.0293C57.8438 11.416 57.7119 11.7324 57.4482 11.9785C57.1904 12.2246 56.8477 12.3477 56.4199 12.3477C55.9922 12.3477 55.6465 12.2246 55.3828 11.9785C55.125 11.7324 54.9961 11.416 54.9961 11.0293ZM62.1328 13.4902L62.2119 14.5889C62.8916 13.7393 63.8027 13.3145 64.9453 13.3145C65.9531 13.3145 66.7031 13.6104 67.1953 14.2021C67.6875 14.7939 67.9395 15.6787 67.9512 16.8564V23H65.4111V16.918C65.4111 16.3789 65.2939 15.9893 65.0596 15.749C64.8252 15.5029 64.4355 15.3799 63.8906 15.3799C63.1758 15.3799 62.6396 15.6846 62.2822 16.2939V23H59.7422V13.4902H62.1328Z" fill="black"/>
</svg>
