<svg width="89" height="34" viewBox="0 0 89 34" fill="none" xmlns="http://www.w3.org/2000/svg">
<path fill-rule="evenodd" clip-rule="evenodd" d="M89 17C89 26.3888 81.2572 34 71.706 34C65.2787 34 59.6704 30.5535 56.6892 25.4379C58.5749 23.5006 59.7332 20.8737 59.7332 17.9808C59.7332 14.7502 58.2887 11.8513 56 9.87414C58.7417 4.04465 64.7433 0 71.706 0C81.2572 0 89 7.61116 89 17Z" fill="black"/>
<path d="M11.167 12.3389H7.24707V23H4.61035V12.3389H0.743164V10.2031H11.167V12.3389ZM20.3604 19.5459L21.6084 13.4902H24.0605L21.6348 23H19.5078L17.7061 17.0146L15.9043 23H13.7861L11.3604 13.4902H13.8125L15.0518 19.5371L16.792 13.4902H18.6289L20.3604 19.5459ZM28.0068 23H25.458V13.4902H28.0068V23ZM25.3086 11.0293C25.3086 10.6484 25.4346 10.335 25.6865 10.0889C25.9443 9.84277 26.293 9.71973 26.7324 9.71973C27.166 9.71973 27.5117 9.84277 27.7695 10.0889C28.0273 10.335 28.1562 10.6484 28.1562 11.0293C28.1562 11.416 28.0244 11.7324 27.7607 11.9785C27.5029 12.2246 27.1602 12.3477 26.7324 12.3477C26.3047 12.3477 25.959 12.2246 25.6953 11.9785C25.4375 11.7324 25.3086 11.416 25.3086 11.0293ZM33.1484 11.1523V13.4902H34.7744V15.3535H33.1484V20.0996C33.1484 20.4512 33.2158 20.7031 33.3506 20.8555C33.4854 21.0078 33.7432 21.084 34.124 21.084C34.4053 21.084 34.6543 21.0635 34.8711 21.0225V22.9473C34.373 23.0996 33.8604 23.1758 33.333 23.1758C31.5518 23.1758 30.6436 22.2764 30.6084 20.4775V15.3535H29.2197V13.4902H30.6084V11.1523H33.1484ZM39.2305 11.1523V13.4902H40.8564V15.3535H39.2305V20.0996C39.2305 20.4512 39.2979 20.7031 39.4326 20.8555C39.5674 21.0078 39.8252 21.084 40.2061 21.084C40.4873 21.084 40.7363 21.0635 40.9531 21.0225V22.9473C40.4551 23.0996 39.9424 23.1758 39.415 23.1758C37.6338 23.1758 36.7256 22.2764 36.6904 20.4775V15.3535H35.3018V13.4902H36.6904V11.1523H39.2305ZM46.6484 23.1758C45.2539 23.1758 44.1172 22.748 43.2383 21.8926C42.3652 21.0371 41.9287 19.8975 41.9287 18.4736V18.2275C41.9287 17.2725 42.1133 16.4199 42.4824 15.6699C42.8516 14.9141 43.373 14.334 44.0469 13.9297C44.7266 13.5195 45.5 13.3145 46.3672 13.3145C47.668 13.3145 48.6904 13.7246 49.4346 14.5449C50.1846 15.3652 50.5596 16.5283 50.5596 18.0342V19.0713H44.5039C44.5859 19.6924 44.832 20.1904 45.2422 20.5654C45.6582 20.9404 46.1826 21.1279 46.8154 21.1279C47.7939 21.1279 48.5586 20.7734 49.1094 20.0645L50.3574 21.4619C49.9766 22.001 49.4609 22.4229 48.8105 22.7275C48.1602 23.0264 47.4395 23.1758 46.6484 23.1758ZM46.3584 15.3711C45.8545 15.3711 45.4443 15.541 45.1279 15.8809C44.8174 16.2207 44.6182 16.707 44.5303 17.3398H48.0635V17.1377C48.0518 16.5752 47.8994 16.1416 47.6064 15.8369C47.3135 15.5264 46.8975 15.3711 46.3584 15.3711ZM57.3535 15.8721C57.0078 15.8252 56.7031 15.8018 56.4395 15.8018C55.4785 15.8018 54.8486 16.127 54.5498 16.7773V23H52.0098V13.4902H54.4092L54.4795 14.624C54.9893 13.751 55.6953 13.3145 56.5977 13.3145C56.8789 13.3145 57.1426 13.3525 57.3887 13.4287L57.3535 15.8721Z" fill="black"/>
<path d="M84.9562 10.1437C84.0953 10.508 83.1836 10.7487 82.2501 10.8579C83.2341 10.2892 83.9707 9.39644 84.3237 8.34493C83.3929 8.86469 82.3799 9.23386 81.325 9.43773C80.6157 8.7079 79.676 8.2239 78.6517 8.06083C77.6275 7.89775 76.576 8.06472 75.6604 8.53583C74.7448 9.00694 74.0163 9.75584 73.5878 10.6664C73.1594 11.5769 73.055 12.5981 73.2908 13.5715C69.3715 13.3951 65.8971 11.5818 63.5733 8.84254C63.1503 9.53523 62.9291 10.3249 62.9329 11.1285C62.9324 11.8755 63.1234 12.6111 63.489 13.2699C63.8546 13.9288 64.3835 14.4905 65.0288 14.9052C64.281 14.8834 63.5496 14.6895 62.8956 14.3398V14.3944C62.8953 15.443 63.2716 16.4593 63.9606 17.2712C64.6497 18.0832 65.6091 18.6407 66.6762 18.8494C66.272 18.9534 65.8555 19.0067 65.4371 19.0079C65.1345 19.0079 64.8455 18.9795 64.5573 18.9283C64.861 19.8306 65.4493 20.6192 66.2403 21.1845C67.0313 21.7498 67.9856 22.0635 68.9704 22.0821C67.3018 23.3404 65.2428 24.023 63.1234 24.0206C62.748 24.0221 62.3729 24.0017 62 23.9597C64.1621 25.2937 66.6764 26.0018 69.2443 26C77.9174 26 82.6569 19.0826 82.6569 13.0919C82.6569 12.9009 82.6569 12.7064 82.6418 12.5113C83.5689 11.8715 84.3679 11.0752 85 10.161L84.9562 10.1437Z" fill="#FFD600"/>
</svg>
